<svg id="visual" viewBox="0 0 900 600" width="900" height="600" xmlns="http://www.w3.org/2000/svg" xmlns:xlink="http://www.w3.org/1999/xlink" version="1.1"><rect x="0" y="0" width="900" height="600" fill="#3f51b5"></rect><g fill="none" stroke="#a16dc1" stroke-width="1"><circle r="12" cx="248" cy="32"></circle><circle r="-1" cx="18" cy="11"></circle><circle r="6" cx="394" cy="493"></circle><circle r="7" cx="732" cy="70"></circle><circle r="8" cx="422" cy="106"></circle><circle r="7" cx="838" cy="160"></circle><circle r="9" cx="704" cy="435"></circle><circle r="-1" cx="877" cy="451"></circle><circle r="3" cx="829" cy="487"></circle><circle r="8" cx="278" cy="296"></circle><circle r="9" cx="491" cy="13"></circle><circle r="-2" cx="755" cy="202"></circle><circle r="3" cx="764" cy="245"></circle><circle r="-1" cx="389" cy="394"></circle><circle r="-2" cx="699" cy="116"></circle><circle r="0" cx="165" cy="306"></circle><circle r="8" cx="460" cy="270"></circle><circle r="4" cx="657" cy="348"></circle><circle r="10" cx="431" cy="537"></circle><circle r="8" cx="282" cy="336"></circle><circle r="4" cx="73" cy="171"></circle><circle r="8" cx="714" cy="143"></circle><circle r="0" cx="720" cy="381"></circle><circle r="0" cx="451" cy="181"></circle><circle r="0" cx="252" cy="78"></circle><circle r="-2" cx="862" cy="380"></circle><circle r="-1" cx="212" cy="207"></circle><circle r="9" cx="140" cy="315"></circle><circle r="7" cx="323" cy="302"></circle><circle r="-1" cx="168" cy="378"></circle><circle r="1" cx="278" cy="501"></circle><circle r="0" cx="210" cy="587"></circle><circle r="9" cx="672" cy="401"></circle><circle r="-2" cx="714" cy="536"></circle><circle r="1" cx="750" cy="25"></circle><circle r="8" cx="821" cy="180"></circle><circle r="8" cx="159" cy="551"></circle><circle r="8" cx="109" cy="575"></circle><circle r="10" cx="404" cy="11"></circle><circle r="-2" cx="319" cy="71"></circle><circle r="8" cx="351" cy="175"></circle><circle r="6" cx="264" cy="148"></circle><circle r="10" cx="435" cy="411"></circle><circle r="1" cx="211" cy="553"></circle><circle r="-2" cx="19" cy="236"></circle><circle r="1" cx="585" cy="20"></circle><circle r="6" cx="530" cy="577"></circle><circle r="0" cx="547" cy="188"></circle><circle r="-1" cx="338" cy="589"></circle><circle r="0" cx="776" cy="129"></circle><circle r="5" cx="426" cy="586"></circle><circle r="1" cx="152" cy="443"></circle><circle r="9" cx="434" cy="474"></circle><circle r="7" cx="76" cy="413"></circle><circle r="9" cx="52" cy="24"></circle><circle r="9" cx="676" cy="13"></circle><circle r="10" cx="46" cy="485"></circle><circle r="7" cx="113" cy="434"></circle><circle r="-2" cx="622" cy="321"></circle><circle r="-2" cx="228" cy="375"></circle><circle r="0" cx="757" cy="500"></circle><circle r="10" cx="204" cy="94"></circle><circle r="7" cx="480" cy="365"></circle><circle r="6" cx="634" cy="569"></circle><circle r="10" cx="195" cy="251"></circle><circle r="9" cx="209" cy="25"></circle><circle r="-1" cx="396" cy="134"></circle><circle r="1" cx="747" cy="461"></circle><circle r="7" cx="293" cy="108"></circle><circle r="3" cx="723" cy="32"></circle><circle r="4" cx="114" cy="250"></circle><circle r="3" cx="106" cy="538"></circle><circle r="5" cx="11" cy="285"></circle><circle r="-2" cx="216" cy="117"></circle><circle r="7" cx="72" cy="63"></circle><circle r="7" cx="694" cy="512"></circle><circle r="4" cx="632" cy="163"></circle><circle r="5" cx="240" cy="187"></circle><circle r="6" cx="784" cy="413"></circle><circle r="6" cx="548" cy="218"></circle><circle r="4" cx="479" cy="116"></circle><circle r="6" cx="446" cy="385"></circle><circle r="4" cx="198" cy="382"></circle><circle r="2" cx="370" cy="247"></circle><circle r="-2" cx="813" cy="363"></circle><circle r="-1" cx="495" cy="297"></circle><circle r="7" cx="106" cy="366"></circle><circle r="5" cx="281" cy="415"></circle><circle r="-2" cx="668" cy="273"></circle><circle r="1" cx="878" cy="247"></circle><circle r="2" cx="808" cy="526"></circle><circle r="-2" cx="878" cy="523"></circle><circle r="1" cx="546" cy="102"></circle><circle r="4" cx="733" cy="272"></circle><circle r="9" cx="68" cy="237"></circle><circle r="2" cx="898" cy="281"></circle><circle r="6" cx="211" cy="152"></circle><circle r="10" cx="787" cy="191"></circle><circle r="-2" cx="603" cy="100"></circle><circle r="4" cx="467" cy="43"></circle><circle r="7" cx="344" cy="379"></circle><circle r="-1" cx="557" cy="30"></circle><circle r="7" cx="588" cy="332"></circle><circle r="7" cx="450" cy="109"></circle><circle r="3" cx="885" cy="44"></circle><circle r="-2" cx="627" cy="75"></circle><circle r="6" cx="686" cy="62"></circle><circle r="5" cx="235" cy="409"></circle><circle r="-2" cx="538" cy="482"></circle><circle r="10" cx="27" cy="399"></circle><circle r="0" cx="240" cy="505"></circle><circle r="8" cx="729" cy="579"></circle><circle r="-2" cx="361" cy="499"></circle><circle r="9" cx="340" cy="406"></circle><circle r="5" cx="703" cy="206"></circle><circle r="0" cx="367" cy="361"></circle><circle r="3" cx="145" cy="410"></circle><circle r="8" cx="577" cy="218"></circle><circle r="2" cx="641" cy="531"></circle><circle r="0" cx="505" cy="446"></circle><circle r="7" cx="163" cy="348"></circle><circle r="1" cx="886" cy="476"></circle><circle r="3" cx="746" cy="106"></circle><circle r="3" cx="654" cy="422"></circle><circle r="-2" cx="194" cy="329"></circle><circle r="10" cx="249" cy="124"></circle><circle r="10" cx="363" cy="122"></circle><circle r="7" cx="845" cy="590"></circle><circle r="9" cx="348" cy="66"></circle><circle r="2" cx="167" cy="91"></circle><circle r="-1" cx="9" cy="464"></circle><circle r="6" cx="242" cy="592"></circle><circle r="3" cx="453" cy="309"></circle><circle r="8" cx="425" cy="302"></circle><circle r="2" cx="129" cy="472"></circle><circle r="9" cx="798" cy="320"></circle><circle r="9" cx="560" cy="440"></circle><circle r="10" cx="21" cy="541"></circle><circle r="1" cx="827" cy="453"></circle><circle r="7" cx="633" cy="403"></circle><circle r="4" cx="4" cy="336"></circle><circle r="10" cx="107" cy="280"></circle><circle r="2" cx="267" cy="372"></circle><circle r="-1" cx="758" cy="289"></circle><circle r="5" cx="729" cy="499"></circle><circle r="9" cx="28" cy="177"></circle><circle r="-2" cx="737" cy="327"></circle><circle r="6" cx="146" cy="217"></circle><circle r="1" cx="797" cy="261"></circle><circle r="9" cx="533" cy="398"></circle><circle r="3" cx="448" cy="154"></circle><circle r="0" cx="864" cy="279"></circle><circle r="5" cx="39" cy="279"></circle><circle r="-2" cx="753" cy="555"></circle><circle r="0" cx="551" cy="157"></circle><circle r="5" cx="793" cy="76"></circle><circle r="5" cx="672" cy="594"></circle><circle r="9" cx="318" cy="17"></circle><circle r="1" cx="860" cy="105"></circle><circle r="6" cx="835" cy="321"></circle><circle r="6" cx="513" cy="218"></circle><circle r="5" cx="814" cy="554"></circle><circle r="1" cx="375" cy="85"></circle><circle r="-1" cx="763" cy="340"></circle><circle r="4" cx="114" cy="142"></circle><circle r="7" cx="749" cy="375"></circle><circle r="7" cx="666" cy="238"></circle><circle r="8" cx="594" cy="183"></circle><circle r="10" cx="128" cy="502"></circle><circle r="4" cx="60" cy="457"></circle><circle r="2" cx="51" cy="595"></circle><circle r="4" cx="627" cy="129"></circle><circle r="7" cx="603" cy="229"></circle><circle r="-1" cx="244" cy="248"></circle><circle r="10" cx="698" cy="479"></circle><circle r="-2" cx="136" cy="107"></circle><circle r="2" cx="68" cy="278"></circle><circle r="6" cx="822" cy="391"></circle><circle r="6" cx="888" cy="326"></circle><circle r="-2" cx="685" cy="167"></circle><circle r="10" cx="40" cy="434"></circle><circle r="0" cx="316" cy="508"></circle><circle r="7" cx="848" cy="525"></circle><circle r="8" cx="364" cy="216"></circle><circle r="5" cx="416" cy="173"></circle><circle r="-2" cx="604" cy="559"></circle><circle r="2" cx="189" cy="431"></circle><circle r="9" cx="686" cy="559"></circle><circle r="0" cx="518" cy="170"></circle><circle r="8" cx="495" cy="518"></circle><circle r="3" cx="550" cy="74"></circle><circle r="0" cx="478" cy="78"></circle><circle r="10" cx="220" cy="294"></circle><circle r="6" cx="563" cy="356"></circle><circle r="8" cx="626" cy="598"></circle><circle r="5" cx="443" cy="218"></circle><circle r="-1" cx="805" cy="37"></circle><circle r="3" cx="288" cy="552"></circle><circle r="-2" cx="37" cy="130"></circle><circle r="0" cx="176" cy="407"></circle><circle r="1" cx="173" cy="32"></circle><circle r="5" cx="107" cy="331"></circle><circle r="1" cx="272" cy="188"></circle><circle r="3" cx="405" cy="269"></circle><circle r="6" cx="435" cy="350"></circle><circle r="4" cx="574" cy="587"></circle><circle r="5" cx="404" cy="564"></circle><circle r="4" cx="609" cy="510"></circle><circle r="3" cx="498" cy="247"></circle><circle r="1" cx="505" cy="64"></circle><circle r="1" cx="267" cy="439"></circle><circle r="5" cx="485" cy="545"></circle><circle r="5" cx="267" cy="11"></circle><circle r="-2" cx="147" cy="59"></circle><circle r="7" cx="574" cy="309"></circle><circle r="8" cx="768" cy="67"></circle><circle r="7" cx="277" cy="260"></circle><circle r="3" cx="231" cy="3"></circle><circle r="7" cx="300" cy="38"></circle><circle r="1" cx="95" cy="219"></circle><circle r="9" cx="658" cy="208"></circle><circle r="5" cx="730" cy="354"></circle><circle r="2" cx="619" cy="458"></circle><circle r="1" cx="354" cy="448"></circle><circle r="7" cx="137" cy="569"></circle><circle r="10" cx="379" cy="461"></circle><circle r="6" cx="160" cy="243"></circle><circle r="-2" cx="193" cy="520"></circle><circle r="7" cx="338" cy="275"></circle><circle r="6" cx="533" cy="305"></circle><circle r="2" cx="141" cy="526"></circle><circle r="9" cx="170" cy="479"></circle><circle r="-1" cx="68" cy="307"></circle><circle r="-1" cx="41" cy="370"></circle><circle r="0" cx="426" cy="244"></circle><circle r="5" cx="246" cy="308"></circle><circle r="3" cx="389" cy="35"></circle><circle r="7" cx="820" cy="230"></circle><circle r="3" cx="411" cy="55"></circle><circle r="9" cx="424" cy="31"></circle><circle r="-1" cx="570" cy="556"></circle><circle r="1" cx="108" cy="395"></circle><circle r="1" cx="693" cy="34"></circle><circle r="3" cx="500" cy="571"></circle><circle r="9" cx="261" cy="552"></circle><circle r="9" cx="490" cy="190"></circle><circle r="5" cx="607" cy="364"></circle><circle r="1" cx="355" cy="336"></circle><circle r="9" cx="833" cy="282"></circle><circle r="0" cx="496" cy="329"></circle><circle r="0" cx="14" cy="57"></circle><circle r="10" cx="137" cy="20"></circle><circle r="-2" cx="814" cy="421"></circle><circle r="-2" cx="306" cy="257"></circle><circle r="3" cx="19" cy="494"></circle><circle r="7" cx="151" cy="159"></circle><circle r="8" cx="380" cy="318"></circle><circle r="10" cx="330" cy="463"></circle><circle r="1" cx="888" cy="418"></circle><circle r="8" cx="401" cy="353"></circle><circle r="2" cx="343" cy="549"></circle><circle r="-2" cx="870" cy="178"></circle><circle r="2" cx="305" cy="476"></circle><circle r="1" cx="641" cy="51"></circle><circle r="-1" cx="411" cy="211"></circle><circle r="-2" cx="201" cy="51"></circle><circle r="1" cx="893" cy="545"></circle><circle r="2" cx="854" cy="72"></circle><circle r="4" cx="894" cy="373"></circle><circle r="8" cx="856" cy="28"></circle><circle r="8" cx="793" cy="230"></circle><circle r="9" cx="713" cy="250"></circle><circle r="5" cx="853" cy="560"></circle><circle r="-1" cx="573" cy="511"></circle><circle r="5" cx="564" cy="406"></circle><circle r="8" cx="402" cy="522"></circle><circle r="6" cx="458" cy="596"></circle><circle r="3" cx="73" cy="580"></circle><circle r="3" cx="331" cy="113"></circle><circle r="10" cx="623" cy="188"></circle><circle r="0" cx="45" cy="558"></circle><circle r="0" cx="40" cy="333"></circle><circle r="9" cx="320" cy="212"></circle><circle r="1" cx="47" cy="79"></circle><circle r="-2" cx="812" cy="151"></circle><circle r="1" cx="709" cy="335"></circle><circle r="5" cx="639" cy="296"></circle><circle r="1" cx="395" cy="438"></circle><circle r="4" cx="6" cy="135"></circle><circle r="0" cx="525" cy="38"></circle><circle r="-1" cx="740" cy="402"></circle><circle r="-1" cx="717" cy="308"></circle><circle r="5" cx="90" cy="514"></circle><circle r="8" cx="315" cy="429"></circle><circle r="7" cx="143" cy="279"></circle><circle r="0" cx="483" cy="161"></circle><circle r="-1" cx="194" cy="131"></circle><circle r="2" cx="389" cy="194"></circle><circle r="9" cx="97" cy="51"></circle><circle r="8" cx="433" cy="274"></circle><circle r="3" cx="663" cy="110"></circle><circle r="2" cx="83" cy="488"></circle><circle r="-2" cx="807" cy="98"></circle><circle r="9" cx="517" cy="370"></circle><circle r="2" cx="466" cy="3"></circle><circle r="-2" cx="777" cy="461"></circle><circle r="1" cx="545" cy="131"></circle><circle r="6" cx="644" cy="14"></circle><circle r="8" cx="859" cy="140"></circle><circle r="8" cx="620" cy="250"></circle><circle r="8" cx="859" cy="219"></circle><circle r="7" cx="170" cy="505"></circle><circle r="3" cx="465" cy="480"></circle><circle r="1" cx="791" cy="377"></circle><circle r="2" cx="302" cy="155"></circle><circle r="5" cx="570" cy="273"></circle><circle r="4" cx="261" cy="471"></circle><circle r="2" cx="548" cy="538"></circle><circle r="-2" cx="191" cy="225"></circle><circle r="7" cx="440" cy="61"></circle><circle r="3" cx="350" cy="309"></circle><circle r="4" cx="856" cy="472"></circle><circle r="-2" cx="133" cy="383"></circle><circle r="9" cx="48" cy="513"></circle><circle r="9" cx="73" cy="536"></circle><circle r="5" cx="371" cy="557"></circle><circle r="6" cx="742" cy="166"></circle><circle r="8" cx="70" cy="130"></circle><circle r="-2" cx="18" cy="571"></circle><circle r="8" cx="881" cy="590"></circle><circle r="8" cx="888" cy="146"></circle><circle r="6" cx="702" cy="598"></circle><circle r="-2" cx="256" cy="224"></circle><circle r="6" cx="500" cy="100"></circle><circle r="-1" cx="773" cy="527"></circle><circle r="3" cx="464" cy="438"></circle><circle r="1" cx="743" cy="530"></circle><circle r="6" cx="205" cy="353"></circle><circle r="-1" cx="31" cy="212"></circle><circle r="4" cx="285" cy="62"></circle><circle r="7" cx="376" cy="158"></circle><circle r="9" cx="162" cy="131"></circle><circle r="8" cx="349" cy="27"></circle><circle r="0" cx="175" cy="572"></circle><circle r="6" cx="732" cy="230"></circle><circle r="2" cx="254" cy="334"></circle><circle r="6" cx="803" cy="293"></circle><circle r="6" cx="383" cy="597"></circle><circle r="8" cx="602" cy="158"></circle><circle r="7" cx="707" cy="5"></circle><circle r="-1" cx="470" cy="210"></circle><circle r="3" cx="522" cy="344"></circle><circle r="2" cx="574" cy="94"></circle><circle r="7" cx="689" cy="302"></circle><circle r="4" cx="213" cy="179"></circle><circle r="6" cx="854" cy="408"></circle><circle r="-1" cx="497" cy="472"></circle><circle r="5" cx="121" cy="225"></circle><circle r="1" cx="207" cy="479"></circle><circle r="9" cx="70" cy="95"></circle><circle r="-2" cx="166" cy="2"></circle><circle r="6" cx="671" cy="374"></circle><circle r="-2" cx="3" cy="169"></circle><circle r="7" cx="671" cy="451"></circle><circle r="2" cx="181" cy="179"></circle><circle r="8" cx="308" cy="581"></circle><circle r="8" cx="310" cy="340"></circle><circle r="-2" cx="616" cy="24"></circle><circle r="-1" cx="460" cy="535"></circle><circle r="5" cx="521" cy="3"></circle><circle r="5" cx="80" cy="342"></circle><circle r="8" cx="784" cy="563"></circle><circle r="4" cx="648" cy="500"></circle><circle r="3" cx="680" cy="137"></circle><circle r="3" cx="801" cy="477"></circle><circle r="-2" cx="422" cy="497"></circle><circle r="6" cx="290" cy="229"></circle><circle r="8" cx="130" cy="175"></circle><circle r="1" cx="480" cy="393"></circle><circle r="2" cx="516" cy="132"></circle><circle r="9" cx="268" cy="589"></circle><circle r="2" cx="516" cy="539"></circle><circle r="-2" cx="582" cy="138"></circle><circle r="4" cx="576" cy="382"></circle><circle r="8" cx="345" cy="238"></circle><circle r="9" cx="365" cy="279"></circle><circle r="5" cx="501" cy="410"></circle><circle r="-2" cx="337" cy="140"></circle><circle r="3" cx="653" cy="141"></circle><circle r="-2" cx="4" cy="102"></circle><circle r="5" cx="408" cy="82"></circle><circle r="10" cx="833" cy="47"></circle><circle r="9" cx="552" cy="324"></circle><circle r="-1" cx="530" cy="430"></circle><circle r="4" cx="784" cy="4"></circle><circle r="7" cx="221" cy="233"></circle><circle r="1" cx="576" cy="467"></circle><circle r="0" cx="706" cy="82"></circle><circle r="-1" cx="2" cy="376"></circle><circle r="2" cx="89" cy="456"></circle><circle r="4" cx="208" cy="450"></circle><circle r="2" cx="304" cy="399"></circle><circle r="2" cx="57" cy="205"></circle><circle r="4" cx="316" cy="555"></circle><circle r="-2" cx="498" cy="598"></circle><circle r="7" cx="645" cy="465"></circle><circle r="2" cx="609" cy="291"></circle><circle r="1" cx="584" cy="53"></circle><circle r="-2" cx="53" cy="152"></circle><circle r="-2" cx="533" cy="266"></circle><circle r="2" cx="887" cy="118"></circle><circle r="-1" cx="794" cy="591"></circle><circle r="-1" cx="893" cy="84"></circle><circle r="5" cx="121" cy="84"></circle><circle r="-2" cx="302" cy="370"></circle><circle r="5" cx="616" cy="429"></circle><circle r="2" cx="73" cy="370"></circle><circle r="-1" cx="567" cy="1"></circle><circle r="3" cx="843" cy="197"></circle><circle r="0" cx="594" cy="260"></circle><circle r="5" cx="851" cy="352"></circle><circle r="4" cx="188" cy="277"></circle><circle r="5" cx="362" cy="423"></circle><circle r="7" cx="883" cy="12"></circle><circle r="10" cx="591" cy="440"></circle><circle r="6" cx="716" cy="175"></circle><circle r="-1" cx="763" cy="591"></circle><circle r="6" cx="470" cy="239"></circle><circle r="8" cx="849" cy="244"></circle><circle r="1" cx="553" cy="249"></circle><circle r="8" cx="631" cy="215"></circle><circle r="4" cx="460" cy="339"></circle><circle r="1" cx="132" cy="341"></circle><circle r="3" cx="398" cy="238"></circle><circle r="9" cx="314" cy="179"></circle><circle r="10" cx="263" cy="524"></circle><circle r="-1" cx="774" cy="38"></circle><circle r="-1" cx="235" cy="470"></circle><circle r="6" cx="745" cy="137"></circle><circle r="-2" cx="752" cy="435"></circle><circle r="0" cx="664" cy="79"></circle><circle r="2" cx="783" cy="157"></circle><circle r="5" cx="833" cy="121"></circle><circle r="10" cx="102" cy="10"></circle><circle r="0" cx="40" cy="48"></circle><circle r="3" cx="9" cy="518"></circle><circle r="-2" cx="417" cy="391"></circle><circle r="5" cx="208" cy="407"></circle><circle r="8" cx="96" cy="102"></circle><circle r="5" cx="899" cy="189"></circle><circle r="9" cx="833" cy="92"></circle><circle r="6" cx="430" cy="2"></circle><circle r="1" cx="7" cy="200"></circle><circle r="-2" cx="663" cy="314"></circle><circle r="1" cx="771" cy="94"></circle><circle r="2" cx="605" cy="480"></circle><circle r="8" cx="631" cy="352"></circle><circle r="6" cx="541" cy="511"></circle><circle r="10" cx="826" cy="20"></circle><circle r="-2" cx="175" cy="64"></circle><circle r="0" cx="423" cy="138"></circle><circle r="8" cx="413" cy="330"></circle><circle r="-2" cx="396" cy="105"></circle><circle r="6" cx="434" cy="441"></circle><circle r="4" cx="102" cy="180"></circle><circle r="6" cx="846" cy="435"></circle><circle r="3" cx="449" cy="502"></circle><circle r="2" cx="28" cy="305"></circle><circle r="1" cx="445" cy="566"></circle><circle r="4" cx="894" cy="224"></circle><circle r="7" cx="154" cy="188"></circle><circle r="7" cx="5" cy="414"></circle><circle r="6" cx="596" cy="405"></circle><circle r="-2" cx="848" cy="3"></circle><circle r="6" cx="783" cy="499"></circle><circle r="9" cx="259" cy="398"></circle><circle r="9" cx="352" cy="523"></circle><circle r="5" cx="160" cy="595"></circle><circle r="9" cx="632" cy="101"></circle><circle r="0" cx="370" cy="3"></circle><circle r="2" cx="220" cy="524"></circle><circle r="4" cx="395" cy="295"></circle><circle r="2" cx="714" cy="407"></circle><circle r="6" cx="297" cy="199"></circle><circle r="-1" cx="863" cy="315"></circle><circle r="-1" cx="407" cy="466"></circle><circle r="7" cx="589" cy="534"></circle><circle r="10" cx="88" cy="259"></circle><circle r="4" cx="699" cy="273"></circle><circle r="-1" cx="34" cy="102"></circle><circle r="2" cx="660" cy="553"></circle><circle r="2" cx="240" cy="159"></circle><circle r="3" cx="655" cy="179"></circle><circle r="0" cx="292" cy="3"></circle><circle r="6" cx="228" cy="341"></circle><circle r="10" cx="226" cy="61"></circle><circle r="9" cx="244" cy="277"></circle><circle r="2" cx="642" cy="378"></circle><circle r="-1" cx="56" cy="392"></circle><circle r="0" cx="92" cy="598"></circle><circle r="5" cx="2" cy="257"></circle><circle r="2" cx="700" cy="361"></circle><circle r="-2" cx="75" cy="10"></circle><circle r="8" cx="239" cy="441"></circle><circle r="-2" cx="771" cy="313"></circle><circle r="0" cx="611" cy="50"></circle><circle r="7" cx="675" cy="491"></circle><circle r="5" cx="811" cy="205"></circle><circle r="2" cx="819" cy="582"></circle><circle r="10" cx="673" cy="529"></circle><circle r="0" cx="793" cy="346"></circle><circle r="5" cx="128" cy="599"></circle><circle r="10" cx="855" cy="499"></circle><circle r="10" cx="41" cy="252"></circle><circle r="6" cx="682" cy="339"></circle><circle r="0" cx="548" cy="596"></circle><circle r="0" cx="513" cy="497"></circle><circle r="4" cx="641" cy="269"></circle><circle r="2" cx="195" cy="2"></circle><circle r="7" cx="290" cy="454"></circle><circle r="3" cx="734" cy="3"></circle><circle r="2" cx="6" cy="596"></circle><circle r="5" cx="898" cy="505"></circle><circle r="5" cx="333" cy="354"></circle><circle r="2" cx="264" cy="102"></circle><circle r="8" cx="600" cy="597"></circle><circle r="0" cx="310" cy="130"></circle><circle r="-1" cx="719" cy="459"></circle><circle r="4" cx="329" cy="44"></circle><circle r="-1" cx="236" cy="565"></circle></g></svg>