<svg width="189.2" height="74.702" viewBox="0 0 189.2 74.702" xmlns="http://www.w3.org/2000/svg"><g id="svgGroup" stroke-linecap="round" fill-rule="evenodd" font-size="9pt" stroke="#000" stroke-width="0.25mm" fill="#2C2E3D" style="stroke:#000;stroke-width:0.25mm;fill:#2C2E3D"><path d="M 9.5 73.501 L 0 73.501 L 0 3.501 L 9.5 3.501 L 9.5 33.401 L 44 33.401 L 44 3.501 L 53.5 3.501 L 53.5 73.501 L 44 73.501 L 44 41.601 L 9.5 41.601 L 9.5 73.501 Z M 188.9 51.201 L 152.5 51.201 A 24.088 24.088 0 0 0 153.639 56.226 Q 154.975 60.038 157.6 62.601 Q 161.8 66.701 168.7 66.701 Q 173.2 66.701 176.8 65.751 Q 180.4 64.801 183.7 63.301 L 185.8 71.001 A 40.77 40.77 0 0 1 181.465 72.627 A 51.863 51.863 0 0 1 177.7 73.651 A 38.914 38.914 0 0 1 172.608 74.47 A 52.025 52.025 0 0 1 167.6 74.701 A 28.318 28.318 0 0 1 159.854 73.695 A 21.108 21.108 0 0 1 149.85 67.551 A 23.521 23.521 0 0 1 144.645 58.011 Q 143.3 53.346 143.3 47.501 A 35.359 35.359 0 0 1 144.133 39.679 A 28.84 28.84 0 0 1 146.25 33.551 A 24.642 24.642 0 0 1 151.266 26.469 A 22.887 22.887 0 0 1 154.5 23.851 A 21.048 21.048 0 0 1 164.759 20.379 A 26.205 26.205 0 0 1 166.8 20.301 Q 174.3 20.301 179.25 23.551 Q 184.2 26.801 186.7 32.301 A 28.185 28.185 0 0 1 189.126 42.164 A 33.434 33.434 0 0 1 189.2 44.401 A 75.204 75.204 0 0 1 188.909 51.097 A 69.426 69.426 0 0 1 188.9 51.201 Z M 118.8 73.501 L 109.4 73.501 L 88.5 23.901 L 96.7 20.501 L 114.4 63.301 L 132.1 20.501 L 139.8 23.901 L 118.8 73.501 Z M 79.5 73.501 L 70.5 73.501 L 70.5 21.501 L 79.5 21.501 L 79.5 73.501 Z M 152.4 43.901 L 180.9 43.901 A 24.355 24.355 0 0 0 180.496 39.315 Q 180 36.731 178.896 34.708 A 12.422 12.422 0 0 0 177.1 32.201 A 12.488 12.488 0 0 0 170.139 28.425 A 18.395 18.395 0 0 0 166.6 28.101 A 13.58 13.58 0 0 0 161.488 29.036 A 12.524 12.524 0 0 0 157 32.151 Q 153.2 36.201 152.4 43.901 Z M 70.637 10.789 A 5.973 5.973 0 0 0 75 12.601 A 8.175 8.175 0 0 0 76.496 12.47 A 5.647 5.647 0 0 0 79.6 10.851 Q 81.3 9.101 81.3 6.301 A 7.26 7.26 0 0 0 81.3 6.22 A 6.06 6.06 0 0 0 79.45 1.851 A 7.395 7.395 0 0 0 79.392 1.793 A 6.059 6.059 0 0 0 75 0.001 A 8.264 8.264 0 0 0 73.344 0.158 A 5.661 5.661 0 0 0 70.4 1.701 A 5.588 5.588 0 0 0 68.929 4.333 A 7.987 7.987 0 0 0 68.7 6.301 A 5.992 5.992 0 0 0 69.192 8.719 A 6.643 6.643 0 0 0 70.55 10.701 A 7.466 7.466 0 0 0 70.637 10.789 Z" vector-effect="non-scaling-stroke"/></g></svg>