<svg id="visual" viewBox="0 0 900 600" width="900" height="600" xmlns="http://www.w3.org/2000/svg" xmlns:xlink="http://www.w3.org/1999/xlink" version="1.1"><g stroke-width="1" stroke-linejoin="bevel"><path d="M416 265L497 186L409 203Z" fill="#2c2e3d" stroke="#2c2e3d"></path><path d="M416 265L522 322L497 186Z" fill="#303554" stroke="#303554"></path><path d="M497 186L436 112L409 203Z" fill="#2e3248" stroke="#2e3248"></path><path d="M563 92L535 104L634 196Z" fill="#374483" stroke="#374483"></path><path d="M497 186L535 104L436 112Z" fill="#3a4a9c" stroke="#3a4a9c"></path><path d="M436 112L298 193L409 203Z" fill="#3c4ea8" stroke="#3c4ea8"></path><path d="M409 203L298 193L416 265Z" fill="#3a4a9c" stroke="#3a4a9c"></path><path d="M634 196L535 104L497 186Z" fill="#384790" stroke="#384790"></path><path d="M527 0L401 0L436 112Z" fill="#3f51b5" stroke="#3f51b5"></path><path d="M627 301L634 196L497 186Z" fill="#2c2e3d" stroke="#2c2e3d"></path><path d="M522 322L627 301L497 186Z" fill="#3c4ea8" stroke="#3c4ea8"></path><path d="M298 193L286 313L416 265Z" fill="#374483" stroke="#374483"></path><path d="M416 265L419 419L522 322Z" fill="#354077" stroke="#354077"></path><path d="M309 360L419 419L416 265Z" fill="#32395f" stroke="#32395f"></path><path d="M522 322L606 428L627 301Z" fill="#333c6b" stroke="#333c6b"></path><path d="M286 313L309 360L416 265Z" fill="#3c4ea8" stroke="#3c4ea8"></path><path d="M419 419L525 425L522 322Z" fill="#303554" stroke="#303554"></path><path d="M627 301L676 225L634 196Z" fill="#3c4ea8" stroke="#3c4ea8"></path><path d="M682 0L588 0L563 92Z" fill="#384790" stroke="#384790"></path><path d="M401 0L295 77L436 112Z" fill="#354077" stroke="#354077"></path><path d="M436 112L295 77L298 193Z" fill="#3c4ea8" stroke="#3c4ea8"></path><path d="M184 185L219 333L286 313Z" fill="#2c2e3d" stroke="#2c2e3d"></path><path d="M606 428L676 298L627 301Z" fill="#3f51b5" stroke="#3f51b5"></path><path d="M627 301L676 298L676 225Z" fill="#3f51b5" stroke="#3f51b5"></path><path d="M527 0L436 112L535 104Z" fill="#3a4a9c" stroke="#3a4a9c"></path><path d="M588 0L527 0L563 92Z" fill="#2c2e3d" stroke="#2c2e3d"></path><path d="M563 92L527 0L535 104Z" fill="#303554" stroke="#303554"></path><path d="M525 425L606 428L522 322Z" fill="#2c2e3d" stroke="#2c2e3d"></path><path d="M419 419L537 466L525 425Z" fill="#32395f" stroke="#32395f"></path><path d="M525 425L591 463L606 428Z" fill="#303554" stroke="#303554"></path><path d="M184 185L286 313L298 193Z" fill="#3f51b5" stroke="#3f51b5"></path><path d="M286 313L219 333L309 360Z" fill="#333c6b" stroke="#333c6b"></path><path d="M309 360L308 472L419 419Z" fill="#3c4ea8" stroke="#3c4ea8"></path><path d="M735 74L563 92L634 196Z" fill="#354077" stroke="#354077"></path><path d="M537 466L591 463L525 425Z" fill="#32395f" stroke="#32395f"></path><path d="M606 428L731 414L676 298Z" fill="#2e3248" stroke="#2e3248"></path><path d="M401 0L317 0L295 77Z" fill="#2e3248" stroke="#2e3248"></path><path d="M295 77L211 104L298 193Z" fill="#3f51b5" stroke="#3f51b5"></path><path d="M168 0L211 104L295 77Z" fill="#2c2e3d" stroke="#2c2e3d"></path><path d="M211 104L184 185L298 193Z" fill="#3a4a9c" stroke="#3a4a9c"></path><path d="M208 373L308 472L309 360Z" fill="#374483" stroke="#374483"></path><path d="M419 419L415 525L537 466Z" fill="#3a4a9c" stroke="#3a4a9c"></path><path d="M132 390L208 373L219 333Z" fill="#384790" stroke="#384790"></path><path d="M219 333L208 373L309 360Z" fill="#32395f" stroke="#32395f"></path><path d="M308 472L415 525L419 419Z" fill="#2c2e3d" stroke="#2c2e3d"></path><path d="M537 466L602 600L591 463Z" fill="#2e3248" stroke="#2e3248"></path><path d="M676 225L735 74L634 196Z" fill="#374483" stroke="#374483"></path><path d="M793 178L735 74L676 225Z" fill="#3f51b5" stroke="#3f51b5"></path><path d="M735 74L682 0L563 92Z" fill="#3f51b5" stroke="#3f51b5"></path><path d="M690 529L731 414L606 428Z" fill="#2e3248" stroke="#2e3248"></path><path d="M676 298L784 292L676 225Z" fill="#303554" stroke="#303554"></path><path d="M781 427L731 414L785 487Z" fill="#354077" stroke="#354077"></path><path d="M731 414L784 292L676 298Z" fill="#384790" stroke="#384790"></path><path d="M784 292L793 178L676 225Z" fill="#2e3248" stroke="#2e3248"></path><path d="M793 178L798 101L735 74Z" fill="#3c4ea8" stroke="#3c4ea8"></path><path d="M735 74L770 0L682 0Z" fill="#2c2e3d" stroke="#2c2e3d"></path><path d="M62 274L132 390L219 333Z" fill="#333c6b" stroke="#333c6b"></path><path d="M208 373L161 503L308 472Z" fill="#303554" stroke="#303554"></path><path d="M299 600L423 600L415 525Z" fill="#303554" stroke="#303554"></path><path d="M100 111L95 205L184 185Z" fill="#32395f" stroke="#32395f"></path><path d="M184 185L95 205L219 333Z" fill="#2c2e3d" stroke="#2c2e3d"></path><path d="M100 111L184 185L211 104Z" fill="#2e3248" stroke="#2e3248"></path><path d="M317 0L168 0L295 77Z" fill="#333c6b" stroke="#333c6b"></path><path d="M299 600L415 525L308 472Z" fill="#32395f" stroke="#32395f"></path><path d="M415 525L511 600L537 466Z" fill="#384790" stroke="#384790"></path><path d="M423 600L511 600L415 525Z" fill="#2e3248" stroke="#2e3248"></path><path d="M690 529L606 428L591 463Z" fill="#32395f" stroke="#32395f"></path><path d="M731 414L781 427L784 292Z" fill="#303554" stroke="#303554"></path><path d="M784 292L900 233L793 178Z" fill="#3c4ea8" stroke="#3c4ea8"></path><path d="M793 178L900 117L798 101Z" fill="#374483" stroke="#374483"></path><path d="M168 0L100 111L211 104Z" fill="#3a4a9c" stroke="#3a4a9c"></path><path d="M602 600L690 529L591 463Z" fill="#384790" stroke="#384790"></path><path d="M798 101L770 0L735 74Z" fill="#384790" stroke="#384790"></path><path d="M511 600L602 600L537 466Z" fill="#2c2e3d" stroke="#2c2e3d"></path><path d="M95 205L62 274L219 333Z" fill="#3f51b5" stroke="#3f51b5"></path><path d="M0 231L62 274L95 205Z" fill="#354077" stroke="#354077"></path><path d="M161 503L299 600L308 472Z" fill="#333c6b" stroke="#333c6b"></path><path d="M132 390L161 503L208 373Z" fill="#374483" stroke="#374483"></path><path d="M129 502L161 503L132 390Z" fill="#333c6b" stroke="#333c6b"></path><path d="M793 600L785 487L690 529Z" fill="#3f51b5" stroke="#3f51b5"></path><path d="M690 529L785 487L731 414Z" fill="#32395f" stroke="#32395f"></path><path d="M900 308L900 233L784 292Z" fill="#303554" stroke="#303554"></path><path d="M0 508L129 502L132 390Z" fill="#374483" stroke="#374483"></path><path d="M161 503L167 600L299 600Z" fill="#3f51b5" stroke="#3f51b5"></path><path d="M602 600L694 600L690 529Z" fill="#3c4ea8" stroke="#3c4ea8"></path><path d="M900 308L784 292L900 407Z" fill="#354077" stroke="#354077"></path><path d="M798 101L900 0L770 0Z" fill="#384790" stroke="#384790"></path><path d="M168 0L81 0L100 111Z" fill="#32395f" stroke="#32395f"></path><path d="M0 95L0 231L95 205Z" fill="#3c4ea8" stroke="#3c4ea8"></path><path d="M900 407L784 292L781 427Z" fill="#333c6b" stroke="#333c6b"></path><path d="M900 233L900 117L793 178Z" fill="#3c4ea8" stroke="#3c4ea8"></path><path d="M0 95L95 205L100 111Z" fill="#374483" stroke="#374483"></path><path d="M62 274L0 379L132 390Z" fill="#3a4a9c" stroke="#3a4a9c"></path><path d="M0 231L0 293L62 274Z" fill="#333c6b" stroke="#333c6b"></path><path d="M65 600L167 600L129 502Z" fill="#374483" stroke="#374483"></path><path d="M129 502L167 600L161 503Z" fill="#333c6b" stroke="#333c6b"></path><path d="M900 508L900 407L785 487Z" fill="#384790" stroke="#384790"></path><path d="M785 487L900 407L781 427Z" fill="#2c2e3d" stroke="#2c2e3d"></path><path d="M81 0L0 95L100 111Z" fill="#3a4a9c" stroke="#3a4a9c"></path><path d="M0 293L0 379L62 274Z" fill="#303554" stroke="#303554"></path><path d="M900 117L900 0L798 101Z" fill="#384790" stroke="#384790"></path><path d="M694 600L793 600L690 529Z" fill="#303554" stroke="#303554"></path><path d="M81 0L0 0L0 95Z" fill="#3c4ea8" stroke="#3c4ea8"></path><path d="M793 600L900 508L785 487Z" fill="#2e3248" stroke="#2e3248"></path><path d="M0 379L0 508L132 390Z" fill="#303554" stroke="#303554"></path><path d="M0 508L65 600L129 502Z" fill="#3a4a9c" stroke="#3a4a9c"></path><path d="M793 600L900 600L900 508Z" fill="#374483" stroke="#374483"></path><path d="M0 508L0 600L65 600Z" fill="#303554" stroke="#303554"></path></g></svg>