<svg id="visual" viewBox="0 0 900 600" width="900" height="600" xmlns="http://www.w3.org/2000/svg" xmlns:xlink="http://www.w3.org/1999/xlink" version="1.1"><path d="M0 19L12.5 23C25 27 50 35 75 38C100 41 125 39 150 40C175 41 200 45 225 49C250 53 275 57 300 56C325 55 350 49 375 47C400 45 425 47 450 47C475 47 500 45 525 46C550 47 575 51 600 53C625 55 650 55 675 50C700 45 725 35 750 34C775 33 800 41 825 43C850 45 875 41 887.5 39L900 37L900 0L887.5 0C875 0 850 0 825 0C800 0 775 0 750 0C725 0 700 0 675 0C650 0 625 0 600 0C575 0 550 0 525 0C500 0 475 0 450 0C425 0 400 0 375 0C350 0 325 0 300 0C275 0 250 0 225 0C200 0 175 0 150 0C125 0 100 0 75 0C50 0 25 0 12.5 0L0 0Z" fill="#3f51b5"></path><path d="M0 67L12.5 70C25 73 50 79 75 81C100 83 125 81 150 83C175 85 200 91 225 97C250 103 275 109 300 110C325 111 350 107 375 99C400 91 425 79 450 74C475 69 500 71 525 77C550 83 575 93 600 96C625 99 650 95 675 94C700 93 725 95 750 94C775 93 800 89 825 82C850 75 875 65 887.5 60L900 55L900 35L887.5 37C875 39 850 43 825 41C800 39 775 31 750 32C725 33 700 43 675 48C650 53 625 53 600 51C575 49 550 45 525 44C500 43 475 45 450 45C425 45 400 43 375 45C350 47 325 53 300 54C275 55 250 51 225 47C200 43 175 39 150 38C125 37 100 39 75 36C50 33 25 25 12.5 21L0 17Z" fill="#4c53b6"></path><path d="M0 133L12.5 142C25 151 50 169 75 183C100 197 125 207 150 210C175 213 200 209 225 201C250 193 275 181 300 191C325 201 350 233 375 244C400 255 425 245 450 241C475 237 500 239 525 227C550 215 575 189 600 176C625 163 650 163 675 176C700 189 725 215 750 216C775 217 800 193 825 177C850 161 875 153 887.5 149L900 145L900 53L887.5 58C875 63 850 73 825 80C800 87 775 91 750 92C725 93 700 91 675 92C650 93 625 97 600 94C575 91 550 81 525 75C500 69 475 67 450 72C425 77 400 89 375 97C350 105 325 109 300 108C275 107 250 101 225 95C200 89 175 83 150 81C125 79 100 81 75 79C50 77 25 71 12.5 68L0 65Z" fill="#5755b7"></path><path d="M0 295L12.5 293C25 291 50 287 75 296C100 305 125 327 150 332C175 337 200 325 225 316C250 307 275 301 300 305C325 309 350 323 375 326C400 329 425 321 450 321C475 321 500 329 525 331C550 333 575 329 600 321C625 313 650 301 675 299C700 297 725 305 750 300C775 295 800 277 825 280C850 283 875 307 887.5 319L900 331L900 143L887.5 147C875 151 850 159 825 175C800 191 775 215 750 214C725 213 700 187 675 174C650 161 625 161 600 174C575 187 550 213 525 225C500 237 475 235 450 239C425 243 400 253 375 242C350 231 325 199 300 189C275 179 250 191 225 199C200 207 175 211 150 208C125 205 100 195 75 181C50 167 25 149 12.5 140L0 131Z" fill="#6158b8"></path><path d="M0 331L12.5 330C25 329 50 327 75 337C100 347 125 369 150 371C175 373 200 355 225 342C250 329 275 321 300 326C325 331 350 349 375 357C400 365 425 363 450 362C475 361 500 361 525 359C550 357 575 353 600 348C625 343 650 337 675 335C700 333 725 335 750 329C775 323 800 309 825 315C850 321 875 347 887.5 360L900 373L900 329L887.5 317C875 305 850 281 825 278C800 275 775 293 750 298C725 303 700 295 675 297C650 299 625 311 600 319C575 327 550 331 525 329C500 327 475 319 450 319C425 319 400 327 375 324C350 321 325 307 300 303C275 299 250 305 225 314C200 323 175 335 150 330C125 325 100 303 75 294C50 285 25 289 12.5 291L0 293Z" fill="#6b5ab9"></path><path d="M0 385L12.5 388C25 391 50 397 75 404C100 411 125 419 150 417C175 415 200 403 225 395C250 387 275 383 300 392C325 401 350 423 375 424C400 425 425 405 450 397C475 389 500 393 525 393C550 393 575 389 600 388C625 387 650 389 675 387C700 385 725 379 750 374C775 369 800 365 825 369C850 373 875 385 887.5 391L900 397L900 371L887.5 358C875 345 850 319 825 313C800 307 775 321 750 327C725 333 700 331 675 333C650 335 625 341 600 346C575 351 550 355 525 357C500 359 475 359 450 360C425 361 400 363 375 355C350 347 325 329 300 324C275 319 250 327 225 340C200 353 175 371 150 369C125 367 100 345 75 335C50 325 25 327 12.5 328L0 329Z" fill="#745dbb"></path><path d="M0 409L12.5 410C25 411 50 413 75 419C100 425 125 435 150 434C175 433 200 421 225 416C250 411 275 413 300 422C325 431 350 447 375 448C400 449 425 435 450 427C475 419 500 417 525 417C550 417 575 419 600 418C625 417 650 413 675 410C700 407 725 405 750 401C775 397 800 391 825 394C850 397 875 409 887.5 415L900 421L900 395L887.5 389C875 383 850 371 825 367C800 363 775 367 750 372C725 377 700 383 675 385C650 387 625 385 600 386C575 387 550 391 525 391C500 391 475 387 450 395C425 403 400 423 375 422C350 421 325 399 300 390C275 381 250 385 225 393C200 401 175 413 150 415C125 417 100 409 75 402C50 395 25 389 12.5 386L0 383Z" fill="#7c5fbc"></path><path d="M0 421L12.5 425C25 429 50 437 75 444C100 451 125 457 150 453C175 449 200 435 225 432C250 429 275 437 300 446C325 455 350 465 375 464C400 463 425 451 450 444C475 437 500 435 525 436C550 437 575 441 600 441C625 441 650 437 675 433C700 429 725 425 750 421C775 417 800 413 825 418C850 423 875 437 887.5 444L900 451L900 419L887.5 413C875 407 850 395 825 392C800 389 775 395 750 399C725 403 700 405 675 408C650 411 625 415 600 416C575 417 550 415 525 415C500 415 475 417 450 425C425 433 400 447 375 446C350 445 325 429 300 420C275 411 250 409 225 414C200 419 175 431 150 432C125 433 100 423 75 417C50 411 25 409 12.5 408L0 407Z" fill="#8462bd"></path><path d="M0 439L12.5 443C25 447 50 455 75 464C100 473 125 483 150 483C175 483 200 473 225 471C250 469 275 475 300 480C325 485 350 489 375 484C400 479 425 465 450 460C475 455 500 459 525 462C550 465 575 467 600 467C625 467 650 465 675 459C700 453 725 443 750 441C775 439 800 445 825 455C850 465 875 479 887.5 486L900 493L900 449L887.5 442C875 435 850 421 825 416C800 411 775 415 750 419C725 423 700 427 675 431C650 435 625 439 600 439C575 439 550 435 525 434C500 433 475 435 450 442C425 449 400 461 375 462C350 463 325 453 300 444C275 435 250 427 225 430C200 433 175 447 150 451C125 455 100 449 75 442C50 435 25 427 12.5 423L0 419Z" fill="#8c65be"></path><path d="M0 469L12.5 470C25 471 50 473 75 480C100 487 125 499 150 500C175 501 200 491 225 489C250 487 275 493 300 501C325 509 350 519 375 516C400 513 425 497 450 492C475 487 500 493 525 493C550 493 575 487 600 485C625 483 650 485 675 483C700 481 725 475 750 475C775 475 800 481 825 489C850 497 875 507 887.5 512L900 517L900 491L887.5 484C875 477 850 463 825 453C800 443 775 437 750 439C725 441 700 451 675 457C650 463 625 465 600 465C575 465 550 463 525 460C500 457 475 453 450 458C425 463 400 477 375 482C350 487 325 483 300 478C275 473 250 467 225 469C200 471 175 481 150 481C125 481 100 471 75 462C50 453 25 445 12.5 441L0 437Z" fill="#9367bf"></path><path d="M0 517L12.5 513C25 509 50 501 75 504C100 507 125 521 150 527C175 533 200 531 225 527C250 523 275 517 300 523C325 529 350 547 375 549C400 551 425 537 450 529C475 521 500 519 525 518C550 517 575 517 600 519C625 521 650 525 675 522C700 519 725 509 750 509C775 509 800 519 825 529C850 539 875 549 887.5 554L900 559L900 515L887.5 510C875 505 850 495 825 487C800 479 775 473 750 473C725 473 700 479 675 481C650 483 625 481 600 483C575 485 550 491 525 491C500 491 475 485 450 490C425 495 400 511 375 514C350 517 325 507 300 499C275 491 250 485 225 487C200 489 175 499 150 498C125 497 100 485 75 478C50 471 25 469 12.5 468L0 467Z" fill="#9a6ac0"></path><path d="M0 601L12.5 601C25 601 50 601 75 601C100 601 125 601 150 601C175 601 200 601 225 601C250 601 275 601 300 601C325 601 350 601 375 601C400 601 425 601 450 601C475 601 500 601 525 601C550 601 575 601 600 601C625 601 650 601 675 601C700 601 725 601 750 601C775 601 800 601 825 601C850 601 875 601 887.5 601L900 601L900 557L887.5 552C875 547 850 537 825 527C800 517 775 507 750 507C725 507 700 517 675 520C650 523 625 519 600 517C575 515 550 515 525 516C500 517 475 519 450 527C425 535 400 549 375 547C350 545 325 527 300 521C275 515 250 521 225 525C200 529 175 531 150 525C125 519 100 505 75 502C50 499 25 507 12.5 511L0 515Z" fill="#a16dc1"></path></svg>