<svg id="visual" viewBox="0 0 900 600" width="900" height="600" xmlns="http://www.w3.org/2000/svg" xmlns:xlink="http://www.w3.org/1999/xlink" version="1.1"><rect width="900" height="600" fill="#3f51b5"></rect><g><g transform="translate(505 375)"><path d="M0 -13.1L11.4 -6.6L11.4 6.6L0 13.1L-11.4 6.6L-11.4 -6.6Z" fill="none" stroke="#a16dc1" stroke-width="1"></path></g><g transform="translate(235 256)"><path d="M0 -6L5.2 -3L5.2 3L0 6L-5.2 3L-5.2 -3Z" fill="none" stroke="#a16dc1" stroke-width="1"></path></g><g transform="translate(518 59)"><path d="M0 -1L0.9 -0.5L0.9 0.5L0 1L-0.9 0.5L-0.9 -0.5Z" fill="none" stroke="#a16dc1" stroke-width="1"></path></g><g transform="translate(23 421)"><path d="M0 -2L1.7 -1L1.7 1L0 2L-1.7 1L-1.7 -1Z" fill="none" stroke="#a16dc1" stroke-width="1"></path></g><g transform="translate(671 405)"><path d="M0 -12L10.4 -6L10.4 6L0 12L-10.4 6L-10.4 -6Z" fill="none" stroke="#a16dc1" stroke-width="1"></path></g><g transform="translate(12 332)"><path d="M0 -10L8.7 -5L8.7 5L0 10L-8.7 5L-8.7 -5Z" fill="none" stroke="#a16dc1" stroke-width="1"></path></g><g transform="translate(358 485)"><path d="M0 -6L5.2 -3L5.2 3L0 6L-5.2 3L-5.2 -3Z" fill="none" stroke="#a16dc1" stroke-width="1"></path></g><g transform="translate(687 173)"><path d="M0 -6L5.2 -3L5.2 3L0 6L-5.2 3L-5.2 -3Z" fill="none" stroke="#a16dc1" stroke-width="1"></path></g><g transform="translate(712 396)"><path d="M0 -2L1.7 -1L1.7 1L0 2L-1.7 1L-1.7 -1Z" fill="none" stroke="#a16dc1" stroke-width="1"></path></g><g transform="translate(845 596)"><path d="M0 -7L6.1 -3.5L6.1 3.5L0 7L-6.1 3.5L-6.1 -3.5Z" fill="none" stroke="#a16dc1" stroke-width="1"></path></g><g transform="translate(790 67)"><path d="M0 -10L8.7 -5L8.7 5L0 10L-8.7 5L-8.7 -5Z" fill="none" stroke="#a16dc1" stroke-width="1"></path></g><g transform="translate(465 557)"><path d="M0 -8L6.9 -4L6.9 4L0 8L-6.9 4L-6.9 -4Z" fill="none" stroke="#a16dc1" stroke-width="1"></path></g><g transform="translate(455 19)"><path d="M0 -9L7.8 -4.5L7.8 4.5L0 9L-7.8 4.5L-7.8 -4.5Z" fill="none" stroke="#a16dc1" stroke-width="1"></path></g><g transform="translate(553 110)"><path d="M0 -2L1.7 -1L1.7 1L0 2L-1.7 1L-1.7 -1Z" fill="none" stroke="#a16dc1" stroke-width="1"></path></g><g transform="translate(366 223)"><path d="M0 -7L6.1 -3.5L6.1 3.5L0 7L-6.1 3.5L-6.1 -3.5Z" fill="none" stroke="#a16dc1" stroke-width="1"></path></g><g transform="translate(387 375)"><path d="M0 -8L6.9 -4L6.9 4L0 8L-6.9 4L-6.9 -4Z" fill="none" stroke="#a16dc1" stroke-width="1"></path></g><g transform="translate(649 108)"><path d="M0 -3L2.6 -1.5L2.6 1.5L0 3L-2.6 1.5L-2.6 -1.5Z" fill="none" stroke="#a16dc1" stroke-width="1"></path></g><g transform="translate(506 548)"><path d="M0 -9L7.8 -4.5L7.8 4.5L0 9L-7.8 4.5L-7.8 -4.5Z" fill="none" stroke="#a16dc1" stroke-width="1"></path></g><g transform="translate(645 494)"><path d="M0 -10L8.7 -5L8.7 5L0 10L-8.7 5L-8.7 -5Z" fill="none" stroke="#a16dc1" stroke-width="1"></path></g><g transform="translate(146 237)"><path d="M0 -1L0.9 -0.5L0.9 0.5L0 1L-0.9 0.5L-0.9 -0.5Z" fill="none" stroke="#a16dc1" stroke-width="1"></path></g><g transform="translate(295 481)"><path d="M0 -4L3.5 -2L3.5 2L0 4L-3.5 2L-3.5 -2Z" fill="none" stroke="#a16dc1" stroke-width="1"></path></g><g transform="translate(570 229)"><path d="M0 -4L3.5 -2L3.5 2L0 4L-3.5 2L-3.5 -2Z" fill="none" stroke="#a16dc1" stroke-width="1"></path></g><g transform="translate(532 575)"><path d="M0 -9L7.8 -4.5L7.8 4.5L0 9L-7.8 4.5L-7.8 -4.5Z" fill="none" stroke="#a16dc1" stroke-width="1"></path></g><g transform="translate(77 82)"><path d="M0 -4L3.5 -2L3.5 2L0 4L-3.5 2L-3.5 -2Z" fill="none" stroke="#a16dc1" stroke-width="1"></path></g><g transform="translate(627 377)"><path d="M0 -1L0.9 -0.5L0.9 0.5L0 1L-0.9 0.5L-0.9 -0.5Z" fill="none" stroke="#a16dc1" stroke-width="1"></path></g><g transform="translate(588 197)"><path d="M0 -7L6.1 -3.5L6.1 3.5L0 7L-6.1 3.5L-6.1 -3.5Z" fill="none" stroke="#a16dc1" stroke-width="1"></path></g><g transform="translate(208 302)"><path d="M0 -1L0.9 -0.5L0.9 0.5L0 1L-0.9 0.5L-0.9 -0.5Z" fill="none" stroke="#a16dc1" stroke-width="1"></path></g><g transform="translate(280 552)"><path d="M0 -6L5.2 -3L5.2 3L0 6L-5.2 3L-5.2 -3Z" fill="none" stroke="#a16dc1" stroke-width="1"></path></g><g transform="translate(747 354)"><path d="M0 -5L4.3 -2.5L4.3 2.5L0 5L-4.3 2.5L-4.3 -2.5Z" fill="none" stroke="#a16dc1" stroke-width="1"></path></g><g transform="translate(799 520)"><path d="M0 -3L2.6 -1.5L2.6 1.5L0 3L-2.6 1.5L-2.6 -1.5Z" fill="none" stroke="#a16dc1" stroke-width="1"></path></g><g transform="translate(360 3)"><path d="M0 -9L7.8 -4.5L7.8 4.5L0 9L-7.8 4.5L-7.8 -4.5Z" fill="none" stroke="#a16dc1" stroke-width="1"></path></g><g transform="translate(715 486)"><path d="M0 -1L0.9 -0.5L0.9 0.5L0 1L-0.9 0.5L-0.9 -0.5Z" fill="none" stroke="#a16dc1" stroke-width="1"></path></g><g transform="translate(874 491)"><path d="M0 -5L4.3 -2.5L4.3 2.5L0 5L-4.3 2.5L-4.3 -2.5Z" fill="none" stroke="#a16dc1" stroke-width="1"></path></g><g transform="translate(881 590)"><path d="M0 -1L0.9 -0.5L0.9 0.5L0 1L-0.9 0.5L-0.9 -0.5Z" fill="none" stroke="#a16dc1" stroke-width="1"></path></g><g transform="translate(334 238)"><path d="M0 -3L2.6 -1.5L2.6 1.5L0 3L-2.6 1.5L-2.6 -1.5Z" fill="none" stroke="#a16dc1" stroke-width="1"></path></g><g transform="translate(502 423)"><path d="M0 -4L3.5 -2L3.5 2L0 4L-3.5 2L-3.5 -2Z" fill="none" stroke="#a16dc1" stroke-width="1"></path></g><g transform="translate(830 386)"><path d="M0 -2L1.7 -1L1.7 1L0 2L-1.7 1L-1.7 -1Z" fill="none" stroke="#a16dc1" stroke-width="1"></path></g><g transform="translate(189 6)"><path d="M0 -6L5.2 -3L5.2 3L0 6L-5.2 3L-5.2 -3Z" fill="none" stroke="#a16dc1" stroke-width="1"></path></g><g transform="translate(474 311)"><path d="M0 -12L10.4 -6L10.4 6L0 12L-10.4 6L-10.4 -6Z" fill="none" stroke="#a16dc1" stroke-width="1"></path></g><g transform="translate(259 273)"><path d="M0 -11L9.5 -5.5L9.5 5.5L0 11L-9.5 5.5L-9.5 -5.5Z" fill="none" stroke="#a16dc1" stroke-width="1"></path></g><g transform="translate(783 354)"><path d="M0 -8L6.9 -4L6.9 4L0 8L-6.9 4L-6.9 -4Z" fill="none" stroke="#a16dc1" stroke-width="1"></path></g><g transform="translate(848 471)"><path d="M0 -11L9.5 -5.5L9.5 5.5L0 11L-9.5 5.5L-9.5 -5.5Z" fill="none" stroke="#a16dc1" stroke-width="1"></path></g><g transform="translate(322 124)"><path d="M0 -6L5.2 -3L5.2 3L0 6L-5.2 3L-5.2 -3Z" fill="none" stroke="#a16dc1" stroke-width="1"></path></g><g transform="translate(565 436)"><path d="M0 -12L10.4 -6L10.4 6L0 12L-10.4 6L-10.4 -6Z" fill="none" stroke="#a16dc1" stroke-width="1"></path></g><g transform="translate(154 56)"><path d="M0 -6L5.2 -3L5.2 3L0 6L-5.2 3L-5.2 -3Z" fill="none" stroke="#a16dc1" stroke-width="1"></path></g><g transform="translate(652 11)"><path d="M0 -10L8.7 -5L8.7 5L0 10L-8.7 5L-8.7 -5Z" fill="none" stroke="#a16dc1" stroke-width="1"></path></g><g transform="translate(187 369)"><path d="M0 -11L9.5 -5.5L9.5 5.5L0 11L-9.5 5.5L-9.5 -5.5Z" fill="none" stroke="#a16dc1" stroke-width="1"></path></g><g transform="translate(131 277)"><path d="M0 -8L6.9 -4L6.9 4L0 8L-6.9 4L-6.9 -4Z" fill="none" stroke="#a16dc1" stroke-width="1"></path></g><g transform="translate(799 377)"><path d="M0 -8L6.9 -4L6.9 4L0 8L-6.9 4L-6.9 -4Z" fill="none" stroke="#a16dc1" stroke-width="1"></path></g><g transform="translate(142 171)"><path d="M0 -4L3.5 -2L3.5 2L0 4L-3.5 2L-3.5 -2Z" fill="none" stroke="#a16dc1" stroke-width="1"></path></g><g transform="translate(493 286)"><path d="M0 -7L6.1 -3.5L6.1 3.5L0 7L-6.1 3.5L-6.1 -3.5Z" fill="none" stroke="#a16dc1" stroke-width="1"></path></g><g transform="translate(123 312)"><path d="M0 -11L9.5 -5.5L9.5 5.5L0 11L-9.5 5.5L-9.5 -5.5Z" fill="none" stroke="#a16dc1" stroke-width="1"></path></g><g transform="translate(213 33)"><path d="M0 -5L4.3 -2.5L4.3 2.5L0 5L-4.3 2.5L-4.3 -2.5Z" fill="none" stroke="#a16dc1" stroke-width="1"></path></g><g transform="translate(831 39)"><path d="M0 -7L6.1 -3.5L6.1 3.5L0 7L-6.1 3.5L-6.1 -3.5Z" fill="none" stroke="#a16dc1" stroke-width="1"></path></g><g transform="translate(62 108)"><path d="M0 -7L6.1 -3.5L6.1 3.5L0 7L-6.1 3.5L-6.1 -3.5Z" fill="none" stroke="#a16dc1" stroke-width="1"></path></g><g transform="translate(845 291)"><path d="M0 -10L8.7 -5L8.7 5L0 10L-8.7 5L-8.7 -5Z" fill="none" stroke="#a16dc1" stroke-width="1"></path></g><g transform="translate(650 347)"><path d="M0 -9L7.8 -4.5L7.8 4.5L0 9L-7.8 4.5L-7.8 -4.5Z" fill="none" stroke="#a16dc1" stroke-width="1"></path></g><g transform="translate(40 400)"><path d="M0 -6L5.2 -3L5.2 3L0 6L-5.2 3L-5.2 -3Z" fill="none" stroke="#a16dc1" stroke-width="1"></path></g><g transform="translate(182 220)"><path d="M0 -1L0.9 -0.5L0.9 0.5L0 1L-0.9 0.5L-0.9 -0.5Z" fill="none" stroke="#a16dc1" stroke-width="1"></path></g><g transform="translate(472 226)"><path d="M0 -2L1.7 -1L1.7 1L0 2L-1.7 1L-1.7 -1Z" fill="none" stroke="#a16dc1" stroke-width="1"></path></g><g transform="translate(743 275)"><path d="M0 -4L3.5 -2L3.5 2L0 4L-3.5 2L-3.5 -2Z" fill="none" stroke="#a16dc1" stroke-width="1"></path></g><g transform="translate(115 58)"><path d="M0 -2L1.7 -1L1.7 1L0 2L-1.7 1L-1.7 -1Z" fill="none" stroke="#a16dc1" stroke-width="1"></path></g><g transform="translate(890 445)"><path d="M0 -6L5.2 -3L5.2 3L0 6L-5.2 3L-5.2 -3Z" fill="none" stroke="#a16dc1" stroke-width="1"></path></g><g transform="translate(610 451)"><path d="M0 -5L4.3 -2.5L4.3 2.5L0 5L-4.3 2.5L-4.3 -2.5Z" fill="none" stroke="#a16dc1" stroke-width="1"></path></g><g transform="translate(514 309)"><path d="M0 -10L8.7 -5L8.7 5L0 10L-8.7 5L-8.7 -5Z" fill="none" stroke="#a16dc1" stroke-width="1"></path></g><g transform="translate(522 443)"><path d="M0 -7L6.1 -3.5L6.1 3.5L0 7L-6.1 3.5L-6.1 -3.5Z" fill="none" stroke="#a16dc1" stroke-width="1"></path></g><g transform="translate(660 565)"><path d="M0 -7L6.1 -3.5L6.1 3.5L0 7L-6.1 3.5L-6.1 -3.5Z" fill="none" stroke="#a16dc1" stroke-width="1"></path></g><g transform="translate(830 98)"><path d="M0 -10L8.7 -5L8.7 5L0 10L-8.7 5L-8.7 -5Z" fill="none" stroke="#a16dc1" stroke-width="1"></path></g><g transform="translate(635 70)"><path d="M0 -5L4.3 -2.5L4.3 2.5L0 5L-4.3 2.5L-4.3 -2.5Z" fill="none" stroke="#a16dc1" stroke-width="1"></path></g><g transform="translate(8 102)"><path d="M0 -6L5.2 -3L5.2 3L0 6L-5.2 3L-5.2 -3Z" fill="none" stroke="#a16dc1" stroke-width="1"></path></g><g transform="translate(379 72)"><path d="M0 -9L7.8 -4.5L7.8 4.5L0 9L-7.8 4.5L-7.8 -4.5Z" fill="none" stroke="#a16dc1" stroke-width="1"></path></g><g transform="translate(673 378)"><path d="M0 -1L0.9 -0.5L0.9 0.5L0 1L-0.9 0.5L-0.9 -0.5Z" fill="none" stroke="#a16dc1" stroke-width="1"></path></g><g transform="translate(86 235)"><path d="M0 -7L6.1 -3.5L6.1 3.5L0 7L-6.1 3.5L-6.1 -3.5Z" fill="none" stroke="#a16dc1" stroke-width="1"></path></g><g transform="translate(574 472)"><path d="M0 -4L3.5 -2L3.5 2L0 4L-3.5 2L-3.5 -2Z" fill="none" stroke="#a16dc1" stroke-width="1"></path></g><g transform="translate(350 102)"><path d="M0 -12L10.4 -6L10.4 6L0 12L-10.4 6L-10.4 -6Z" fill="none" stroke="#a16dc1" stroke-width="1"></path></g><g transform="translate(272 226)"><path d="M0 -1L0.9 -0.5L0.9 0.5L0 1L-0.9 0.5L-0.9 -0.5Z" fill="none" stroke="#a16dc1" stroke-width="1"></path></g><g transform="translate(748 51)"><path d="M0 -7L6.1 -3.5L6.1 3.5L0 7L-6.1 3.5L-6.1 -3.5Z" fill="none" stroke="#a16dc1" stroke-width="1"></path></g><g transform="translate(332 332)"><path d="M0 -11L9.5 -5.5L9.5 5.5L0 11L-9.5 5.5L-9.5 -5.5Z" fill="none" stroke="#a16dc1" stroke-width="1"></path></g><g transform="translate(368 530)"><path d="M0 -5L4.3 -2.5L4.3 2.5L0 5L-4.3 2.5L-4.3 -2.5Z" fill="none" stroke="#a16dc1" stroke-width="1"></path></g><g transform="translate(419 209)"><path d="M0 -3L2.6 -1.5L2.6 1.5L0 3L-2.6 1.5L-2.6 -1.5Z" fill="none" stroke="#a16dc1" stroke-width="1"></path></g><g transform="translate(207 517)"><path d="M0 -5L4.3 -2.5L4.3 2.5L0 5L-4.3 2.5L-4.3 -2.5Z" fill="none" stroke="#a16dc1" stroke-width="1"></path></g><g transform="translate(577 585)"><path d="M0 -12L10.4 -6L10.4 6L0 12L-10.4 6L-10.4 -6Z" fill="none" stroke="#a16dc1" stroke-width="1"></path></g><g transform="translate(71 189)"><path d="M0 -1L0.9 -0.5L0.9 0.5L0 1L-0.9 0.5L-0.9 -0.5Z" fill="none" stroke="#a16dc1" stroke-width="1"></path></g><g transform="translate(310 278)"><path d="M0 -9L7.8 -4.5L7.8 4.5L0 9L-7.8 4.5L-7.8 -4.5Z" fill="none" stroke="#a16dc1" stroke-width="1"></path></g><g transform="translate(484 22)"><path d="M0 -9L7.8 -4.5L7.8 4.5L0 9L-7.8 4.5L-7.8 -4.5Z" fill="none" stroke="#a16dc1" stroke-width="1"></path></g><g transform="translate(142 433)"><path d="M0 -5L4.3 -2.5L4.3 2.5L0 5L-4.3 2.5L-4.3 -2.5Z" fill="none" stroke="#a16dc1" stroke-width="1"></path></g><g transform="translate(57 152)"><path d="M0 -3L2.6 -1.5L2.6 1.5L0 3L-2.6 1.5L-2.6 -1.5Z" fill="none" stroke="#a16dc1" stroke-width="1"></path></g><g transform="translate(389 595)"><path d="M0 -6L5.2 -3L5.2 3L0 6L-5.2 3L-5.2 -3Z" fill="none" stroke="#a16dc1" stroke-width="1"></path></g><g transform="translate(530 284)"><path d="M0 -10L8.7 -5L8.7 5L0 10L-8.7 5L-8.7 -5Z" fill="none" stroke="#a16dc1" stroke-width="1"></path></g><g transform="translate(306 151)"><path d="M0 -1L0.9 -0.5L0.9 0.5L0 1L-0.9 0.5L-0.9 -0.5Z" fill="none" stroke="#a16dc1" stroke-width="1"></path></g><g transform="translate(616 113)"><path d="M0 -2L1.7 -1L1.7 1L0 2L-1.7 1L-1.7 -1Z" fill="none" stroke="#a16dc1" stroke-width="1"></path></g><g transform="translate(625 182)"><path d="M0 -12L10.4 -6L10.4 6L0 12L-10.4 6L-10.4 -6Z" fill="none" stroke="#a16dc1" stroke-width="1"></path></g><g transform="translate(291 13)"><path d="M0 -5L4.3 -2.5L4.3 2.5L0 5L-4.3 2.5L-4.3 -2.5Z" fill="none" stroke="#a16dc1" stroke-width="1"></path></g><g transform="translate(336 576)"><path d="M0 -1L0.9 -0.5L0.9 0.5L0 1L-0.9 0.5L-0.9 -0.5Z" fill="none" stroke="#a16dc1" stroke-width="1"></path></g><g transform="translate(110 379)"><path d="M0 -10L8.7 -5L8.7 5L0 10L-8.7 5L-8.7 -5Z" fill="none" stroke="#a16dc1" stroke-width="1"></path></g><g transform="translate(640 452)"><path d="M0 -1L0.9 -0.5L0.9 0.5L0 1L-0.9 0.5L-0.9 -0.5Z" fill="none" stroke="#a16dc1" stroke-width="1"></path></g><g transform="translate(36 371)"><path d="M0 -11L9.5 -5.5L9.5 5.5L0 11L-9.5 5.5L-9.5 -5.5Z" fill="none" stroke="#a16dc1" stroke-width="1"></path></g><g transform="translate(113 427)"><path d="M0 -8L6.9 -4L6.9 4L0 8L-6.9 4L-6.9 -4Z" fill="none" stroke="#a16dc1" stroke-width="1"></path></g><g transform="translate(448 85)"><path d="M0 -1L0.9 -0.5L0.9 0.5L0 1L-0.9 0.5L-0.9 -0.5Z" fill="none" stroke="#a16dc1" stroke-width="1"></path></g><g transform="translate(4 54)"><path d="M0 -11L9.5 -5.5L9.5 5.5L0 11L-9.5 5.5L-9.5 -5.5Z" fill="none" stroke="#a16dc1" stroke-width="1"></path></g><g transform="translate(572 540)"><path d="M0 -3L2.6 -1.5L2.6 1.5L0 3L-2.6 1.5L-2.6 -1.5Z" fill="none" stroke="#a16dc1" stroke-width="1"></path></g><g transform="translate(129 355)"><path d="M0 -1L0.9 -0.5L0.9 0.5L0 1L-0.9 0.5L-0.9 -0.5Z" fill="none" stroke="#a16dc1" stroke-width="1"></path></g><g transform="translate(865 141)"><path d="M0 -2L1.7 -1L1.7 1L0 2L-1.7 1L-1.7 -1Z" fill="none" stroke="#a16dc1" stroke-width="1"></path></g><g transform="translate(158 587)"><path d="M0 -5L4.3 -2.5L4.3 2.5L0 5L-4.3 2.5L-4.3 -2.5Z" fill="none" stroke="#a16dc1" stroke-width="1"></path></g><g transform="translate(623 281)"><path d="M0 -7L6.1 -3.5L6.1 3.5L0 7L-6.1 3.5L-6.1 -3.5Z" fill="none" stroke="#a16dc1" stroke-width="1"></path></g><g transform="translate(49 250)"><path d="M0 -5L4.3 -2.5L4.3 2.5L0 5L-4.3 2.5L-4.3 -2.5Z" fill="none" stroke="#a16dc1" stroke-width="1"></path></g><g transform="translate(724 581)"><path d="M0 -2L1.7 -1L1.7 1L0 2L-1.7 1L-1.7 -1Z" fill="none" stroke="#a16dc1" stroke-width="1"></path></g><g transform="translate(703 277)"><path d="M0 -11L9.5 -5.5L9.5 5.5L0 11L-9.5 5.5L-9.5 -5.5Z" fill="none" stroke="#a16dc1" stroke-width="1"></path></g><g transform="translate(158 3)"><path d="M0 -1L0.9 -0.5L0.9 0.5L0 1L-0.9 0.5L-0.9 -0.5Z" fill="none" stroke="#a16dc1" stroke-width="1"></path></g><g transform="translate(518 142)"><path d="M0 -7L6.1 -3.5L6.1 3.5L0 7L-6.1 3.5L-6.1 -3.5Z" fill="none" stroke="#a16dc1" stroke-width="1"></path></g><g transform="translate(855 410)"><path d="M0 -5L4.3 -2.5L4.3 2.5L0 5L-4.3 2.5L-4.3 -2.5Z" fill="none" stroke="#a16dc1" stroke-width="1"></path></g><g transform="translate(506 221)"><path d="M0 -11L9.5 -5.5L9.5 5.5L0 11L-9.5 5.5L-9.5 -5.5Z" fill="none" stroke="#a16dc1" stroke-width="1"></path></g><g transform="translate(781 571)"><path d="M0 -4L3.5 -2L3.5 2L0 4L-3.5 2L-3.5 -2Z" fill="none" stroke="#a16dc1" stroke-width="1"></path></g><g transform="translate(80 594)"><path d="M0 -2L1.7 -1L1.7 1L0 2L-1.7 1L-1.7 -1Z" fill="none" stroke="#a16dc1" stroke-width="1"></path></g><g transform="translate(361 368)"><path d="M0 -12L10.4 -6L10.4 6L0 12L-10.4 6L-10.4 -6Z" fill="none" stroke="#a16dc1" stroke-width="1"></path></g><g transform="translate(218 229)"><path d="M0 -1L0.9 -0.5L0.9 0.5L0 1L-0.9 0.5L-0.9 -0.5Z" fill="none" stroke="#a16dc1" stroke-width="1"></path></g><g transform="translate(545 81)"><path d="M0 -7L6.1 -3.5L6.1 3.5L0 7L-6.1 3.5L-6.1 -3.5Z" fill="none" stroke="#a16dc1" stroke-width="1"></path></g><g transform="translate(837 554)"><path d="M0 -12L10.4 -6L10.4 6L0 12L-10.4 6L-10.4 -6Z" fill="none" stroke="#a16dc1" stroke-width="1"></path></g><g transform="translate(415 164)"><path d="M0 -7L6.1 -3.5L6.1 3.5L0 7L-6.1 3.5L-6.1 -3.5Z" fill="none" stroke="#a16dc1" stroke-width="1"></path></g><g transform="translate(569 387)"><path d="M0 -8L6.9 -4L6.9 4L0 8L-6.9 4L-6.9 -4Z" fill="none" stroke="#a16dc1" stroke-width="1"></path></g><g transform="translate(577 157)"><path d="M0 -9L7.8 -4.5L7.8 4.5L0 9L-7.8 4.5L-7.8 -4.5Z" fill="none" stroke="#a16dc1" stroke-width="1"></path></g><g transform="translate(300 94)"><path d="M0 -4L3.5 -2L3.5 2L0 4L-3.5 2L-3.5 -2Z" fill="none" stroke="#a16dc1" stroke-width="1"></path></g><g transform="translate(635 314)"><path d="M0 -1L0.9 -0.5L0.9 0.5L0 1L-0.9 0.5L-0.9 -0.5Z" fill="none" stroke="#a16dc1" stroke-width="1"></path></g><g transform="translate(307 199)"><path d="M0 -11L9.5 -5.5L9.5 5.5L0 11L-9.5 5.5L-9.5 -5.5Z" fill="none" stroke="#a16dc1" stroke-width="1"></path></g><g transform="translate(276 52)"><path d="M0 -4L3.5 -2L3.5 2L0 4L-3.5 2L-3.5 -2Z" fill="none" stroke="#a16dc1" stroke-width="1"></path></g><g transform="translate(137 144)"><path d="M0 -2L1.7 -1L1.7 1L0 2L-1.7 1L-1.7 -1Z" fill="none" stroke="#a16dc1" stroke-width="1"></path></g><g transform="translate(805 286)"><path d="M0 -4L3.5 -2L3.5 2L0 4L-3.5 2L-3.5 -2Z" fill="none" stroke="#a16dc1" stroke-width="1"></path></g><g transform="translate(453 430)"><path d="M0 -11L9.5 -5.5L9.5 5.5L0 11L-9.5 5.5L-9.5 -5.5Z" fill="none" stroke="#a16dc1" stroke-width="1"></path></g><g transform="translate(585 95)"><path d="M0 -4L3.5 -2L3.5 2L0 4L-3.5 2L-3.5 -2Z" fill="none" stroke="#a16dc1" stroke-width="1"></path></g><g transform="translate(211 134)"><path d="M0 -4L3.5 -2L3.5 2L0 4L-3.5 2L-3.5 -2Z" fill="none" stroke="#a16dc1" stroke-width="1"></path></g><g transform="translate(77 411)"><path d="M0 -3L2.6 -1.5L2.6 1.5L0 3L-2.6 1.5L-2.6 -1.5Z" fill="none" stroke="#a16dc1" stroke-width="1"></path></g><g transform="translate(76 523)"><path d="M0 -2L1.7 -1L1.7 1L0 2L-1.7 1L-1.7 -1Z" fill="none" stroke="#a16dc1" stroke-width="1"></path></g><g transform="translate(463 63)"><path d="M0 -10L8.7 -5L8.7 5L0 10L-8.7 5L-8.7 -5Z" fill="none" stroke="#a16dc1" stroke-width="1"></path></g><g transform="translate(336 500)"><path d="M0 -3L2.6 -1.5L2.6 1.5L0 3L-2.6 1.5L-2.6 -1.5Z" fill="none" stroke="#a16dc1" stroke-width="1"></path></g><g transform="translate(672 291)"><path d="M0 -9L7.8 -4.5L7.8 4.5L0 9L-7.8 4.5L-7.8 -4.5Z" fill="none" stroke="#a16dc1" stroke-width="1"></path></g><g transform="translate(486 349)"><path d="M0 -11L9.5 -5.5L9.5 5.5L0 11L-9.5 5.5L-9.5 -5.5Z" fill="none" stroke="#a16dc1" stroke-width="1"></path></g><g transform="translate(250 490)"><path d="M0 -2L1.7 -1L1.7 1L0 2L-1.7 1L-1.7 -1Z" fill="none" stroke="#a16dc1" stroke-width="1"></path></g><g transform="translate(515 4)"><path d="M0 -6L5.2 -3L5.2 3L0 6L-5.2 3L-5.2 -3Z" fill="none" stroke="#a16dc1" stroke-width="1"></path></g><g transform="translate(211 460)"><path d="M0 -3L2.6 -1.5L2.6 1.5L0 3L-2.6 1.5L-2.6 -1.5Z" fill="none" stroke="#a16dc1" stroke-width="1"></path></g><g transform="translate(612 216)"><path d="M0 -2L1.7 -1L1.7 1L0 2L-1.7 1L-1.7 -1Z" fill="none" stroke="#a16dc1" stroke-width="1"></path></g><g transform="translate(143 112)"><path d="M0 -12L10.4 -6L10.4 6L0 12L-10.4 6L-10.4 -6Z" fill="none" stroke="#a16dc1" stroke-width="1"></path></g><g transform="translate(676 525)"><path d="M0 -1L0.9 -0.5L0.9 0.5L0 1L-0.9 0.5L-0.9 -0.5Z" fill="none" stroke="#a16dc1" stroke-width="1"></path></g><g transform="translate(622 154)"><path d="M0 -7L6.1 -3.5L6.1 3.5L0 7L-6.1 3.5L-6.1 -3.5Z" fill="none" stroke="#a16dc1" stroke-width="1"></path></g><g transform="translate(290 585)"><path d="M0 -8L6.9 -4L6.9 4L0 8L-6.9 4L-6.9 -4Z" fill="none" stroke="#a16dc1" stroke-width="1"></path></g><g transform="translate(751 391)"><path d="M0 -9L7.8 -4.5L7.8 4.5L0 9L-7.8 4.5L-7.8 -4.5Z" fill="none" stroke="#a16dc1" stroke-width="1"></path></g><g transform="translate(746 315)"><path d="M0 -2L1.7 -1L1.7 1L0 2L-1.7 1L-1.7 -1Z" fill="none" stroke="#a16dc1" stroke-width="1"></path></g><g transform="translate(627 419)"><path d="M0 -3L2.6 -1.5L2.6 1.5L0 3L-2.6 1.5L-2.6 -1.5Z" fill="none" stroke="#a16dc1" stroke-width="1"></path></g><g transform="translate(881 230)"><path d="M0 -1L0.9 -0.5L0.9 0.5L0 1L-0.9 0.5L-0.9 -0.5Z" fill="none" stroke="#a16dc1" stroke-width="1"></path></g><g transform="translate(291 375)"><path d="M0 -8L6.9 -4L6.9 4L0 8L-6.9 4L-6.9 -4Z" fill="none" stroke="#a16dc1" stroke-width="1"></path></g><g transform="translate(808 231)"><path d="M0 -2L1.7 -1L1.7 1L0 2L-1.7 1L-1.7 -1Z" fill="none" stroke="#a16dc1" stroke-width="1"></path></g><g transform="translate(273 175)"><path d="M0 -3L2.6 -1.5L2.6 1.5L0 3L-2.6 1.5L-2.6 -1.5Z" fill="none" stroke="#a16dc1" stroke-width="1"></path></g><g transform="translate(746 513)"><path d="M0 -5L4.3 -2.5L4.3 2.5L0 5L-4.3 2.5L-4.3 -2.5Z" fill="none" stroke="#a16dc1" stroke-width="1"></path></g><g transform="translate(205 487)"><path d="M0 -3L2.6 -1.5L2.6 1.5L0 3L-2.6 1.5L-2.6 -1.5Z" fill="none" stroke="#a16dc1" stroke-width="1"></path></g><g transform="translate(704 423)"><path d="M0 -8L6.9 -4L6.9 4L0 8L-6.9 4L-6.9 -4Z" fill="none" stroke="#a16dc1" stroke-width="1"></path></g><g transform="translate(119 587)"><path d="M0 -6L5.2 -3L5.2 3L0 6L-5.2 3L-5.2 -3Z" fill="none" stroke="#a16dc1" stroke-width="1"></path></g><g transform="translate(762 132)"><path d="M0 -11L9.5 -5.5L9.5 5.5L0 11L-9.5 5.5L-9.5 -5.5Z" fill="none" stroke="#a16dc1" stroke-width="1"></path></g><g transform="translate(433 591)"><path d="M0 -6L5.2 -3L5.2 3L0 6L-5.2 3L-5.2 -3Z" fill="none" stroke="#a16dc1" stroke-width="1"></path></g><g transform="translate(341 64)"><path d="M0 -4L3.5 -2L3.5 2L0 4L-3.5 2L-3.5 -2Z" fill="none" stroke="#a16dc1" stroke-width="1"></path></g><g transform="translate(363 255)"><path d="M0 -6L5.2 -3L5.2 3L0 6L-5.2 3L-5.2 -3Z" fill="none" stroke="#a16dc1" stroke-width="1"></path></g><g transform="translate(13 470)"><path d="M0 -6L5.2 -3L5.2 3L0 6L-5.2 3L-5.2 -3Z" fill="none" stroke="#a16dc1" stroke-width="1"></path></g><g transform="translate(443 346)"><path d="M0 -6L5.2 -3L5.2 3L0 6L-5.2 3L-5.2 -3Z" fill="none" stroke="#a16dc1" stroke-width="1"></path></g><g transform="translate(21 31)"><path d="M0 -10L8.7 -5L8.7 5L0 10L-8.7 5L-8.7 -5Z" fill="none" stroke="#a16dc1" stroke-width="1"></path></g><g transform="translate(621 346)"><path d="M0 -12L10.4 -6L10.4 6L0 12L-10.4 6L-10.4 -6Z" fill="none" stroke="#a16dc1" stroke-width="1"></path></g><g transform="translate(377 140)"><path d="M0 -10L8.7 -5L8.7 5L0 10L-8.7 5L-8.7 -5Z" fill="none" stroke="#a16dc1" stroke-width="1"></path></g><g transform="translate(6 178)"><path d="M0 -7L6.1 -3.5L6.1 3.5L0 7L-6.1 3.5L-6.1 -3.5Z" fill="none" stroke="#a16dc1" stroke-width="1"></path></g><g transform="translate(102 514)"><path d="M0 -6L5.2 -3L5.2 3L0 6L-5.2 3L-5.2 -3Z" fill="none" stroke="#a16dc1" stroke-width="1"></path></g><g transform="translate(420 322)"><path d="M0 -2L1.7 -1L1.7 1L0 2L-1.7 1L-1.7 -1Z" fill="none" stroke="#a16dc1" stroke-width="1"></path></g><g transform="translate(791 107)"><path d="M0 -7L6.1 -3.5L6.1 3.5L0 7L-6.1 3.5L-6.1 -3.5Z" fill="none" stroke="#a16dc1" stroke-width="1"></path></g><g transform="translate(107 544)"><path d="M0 -10L8.7 -5L8.7 5L0 10L-8.7 5L-8.7 -5Z" fill="none" stroke="#a16dc1" stroke-width="1"></path></g><g transform="translate(418 359)"><path d="M0 -10L8.7 -5L8.7 5L0 10L-8.7 5L-8.7 -5Z" fill="none" stroke="#a16dc1" stroke-width="1"></path></g><g transform="translate(256 6)"><path d="M0 -8L6.9 -4L6.9 4L0 8L-6.9 4L-6.9 -4Z" fill="none" stroke="#a16dc1" stroke-width="1"></path></g><g transform="translate(418 518)"><path d="M0 -8L6.9 -4L6.9 4L0 8L-6.9 4L-6.9 -4Z" fill="none" stroke="#a16dc1" stroke-width="1"></path></g><g transform="translate(886 266)"><path d="M0 -10L8.7 -5L8.7 5L0 10L-8.7 5L-8.7 -5Z" fill="none" stroke="#a16dc1" stroke-width="1"></path></g><g transform="translate(585 261)"><path d="M0 -4L3.5 -2L3.5 2L0 4L-3.5 2L-3.5 -2Z" fill="none" stroke="#a16dc1" stroke-width="1"></path></g><g transform="translate(480 516)"><path d="M0 -10L8.7 -5L8.7 5L0 10L-8.7 5L-8.7 -5Z" fill="none" stroke="#a16dc1" stroke-width="1"></path></g><g transform="translate(72 466)"><path d="M0 -5L4.3 -2.5L4.3 2.5L0 5L-4.3 2.5L-4.3 -2.5Z" fill="none" stroke="#a16dc1" stroke-width="1"></path></g><g transform="translate(244 216)"><path d="M0 -2L1.7 -1L1.7 1L0 2L-1.7 1L-1.7 -1Z" fill="none" stroke="#a16dc1" stroke-width="1"></path></g><g transform="translate(802 471)"><path d="M0 -1L0.9 -0.5L0.9 0.5L0 1L-0.9 0.5L-0.9 -0.5Z" fill="none" stroke="#a16dc1" stroke-width="1"></path></g><g transform="translate(188 108)"><path d="M0 -4L3.5 -2L3.5 2L0 4L-3.5 2L-3.5 -2Z" fill="none" stroke="#a16dc1" stroke-width="1"></path></g><g transform="translate(404 567)"><path d="M0 -6L5.2 -3L5.2 3L0 6L-5.2 3L-5.2 -3Z" fill="none" stroke="#a16dc1" stroke-width="1"></path></g><g transform="translate(338 169)"><path d="M0 -9L7.8 -4.5L7.8 4.5L0 9L-7.8 4.5L-7.8 -4.5Z" fill="none" stroke="#a16dc1" stroke-width="1"></path></g><g transform="translate(211 401)"><path d="M0 -2L1.7 -1L1.7 1L0 2L-1.7 1L-1.7 -1Z" fill="none" stroke="#a16dc1" stroke-width="1"></path></g><g transform="translate(489 256)"><path d="M0 -2L1.7 -1L1.7 1L0 2L-1.7 1L-1.7 -1Z" fill="none" stroke="#a16dc1" stroke-width="1"></path></g><g transform="translate(239 598)"><path d="M0 -8L6.9 -4L6.9 4L0 8L-6.9 4L-6.9 -4Z" fill="none" stroke="#a16dc1" stroke-width="1"></path></g><g transform="translate(477 98)"><path d="M0 -6L5.2 -3L5.2 3L0 6L-5.2 3L-5.2 -3Z" fill="none" stroke="#a16dc1" stroke-width="1"></path></g><g transform="translate(804 193)"><path d="M0 -11L9.5 -5.5L9.5 5.5L0 11L-9.5 5.5L-9.5 -5.5Z" fill="none" stroke="#a16dc1" stroke-width="1"></path></g><g transform="translate(54 341)"><path d="M0 -9L7.8 -4.5L7.8 4.5L0 9L-7.8 4.5L-7.8 -4.5Z" fill="none" stroke="#a16dc1" stroke-width="1"></path></g><g transform="translate(250 385)"><path d="M0 -10L8.7 -5L8.7 5L0 10L-8.7 5L-8.7 -5Z" fill="none" stroke="#a16dc1" stroke-width="1"></path></g><g transform="translate(463 466)"><path d="M0 -7L6.1 -3.5L6.1 3.5L0 7L-6.1 3.5L-6.1 -3.5Z" fill="none" stroke="#a16dc1" stroke-width="1"></path></g><g transform="translate(184 143)"><path d="M0 -11L9.5 -5.5L9.5 5.5L0 11L-9.5 5.5L-9.5 -5.5Z" fill="none" stroke="#a16dc1" stroke-width="1"></path></g><g transform="translate(873 61)"><path d="M0 -3L2.6 -1.5L2.6 1.5L0 3L-2.6 1.5L-2.6 -1.5Z" fill="none" stroke="#a16dc1" stroke-width="1"></path></g><g transform="translate(444 267)"><path d="M0 -8L6.9 -4L6.9 4L0 8L-6.9 4L-6.9 -4Z" fill="none" stroke="#a16dc1" stroke-width="1"></path></g><g transform="translate(51 556)"><path d="M0 -10L8.7 -5L8.7 5L0 10L-8.7 5L-8.7 -5Z" fill="none" stroke="#a16dc1" stroke-width="1"></path></g><g transform="translate(240 111)"><path d="M0 -6L5.2 -3L5.2 3L0 6L-5.2 3L-5.2 -3Z" fill="none" stroke="#a16dc1" stroke-width="1"></path></g><g transform="translate(451 118)"><path d="M0 -3L2.6 -1.5L2.6 1.5L0 3L-2.6 1.5L-2.6 -1.5Z" fill="none" stroke="#a16dc1" stroke-width="1"></path></g><g transform="translate(82 44)"><path d="M0 -10L8.7 -5L8.7 5L0 10L-8.7 5L-8.7 -5Z" fill="none" stroke="#a16dc1" stroke-width="1"></path></g><g transform="translate(51 25)"><path d="M0 -4L3.5 -2L3.5 2L0 4L-3.5 2L-3.5 -2Z" fill="none" stroke="#a16dc1" stroke-width="1"></path></g><g transform="translate(375 168)"><path d="M0 -1L0.9 -0.5L0.9 0.5L0 1L-0.9 0.5L-0.9 -0.5Z" fill="none" stroke="#a16dc1" stroke-width="1"></path></g><g transform="translate(890 354)"><path d="M0 -2L1.7 -1L1.7 1L0 2L-1.7 1L-1.7 -1Z" fill="none" stroke="#a16dc1" stroke-width="1"></path></g><g transform="translate(56 437)"><path d="M0 -7L6.1 -3.5L6.1 3.5L0 7L-6.1 3.5L-6.1 -3.5Z" fill="none" stroke="#a16dc1" stroke-width="1"></path></g><g transform="translate(204 583)"><path d="M0 -3L2.6 -1.5L2.6 1.5L0 3L-2.6 1.5L-2.6 -1.5Z" fill="none" stroke="#a16dc1" stroke-width="1"></path></g><g transform="translate(382 467)"><path d="M0 -1L0.9 -0.5L0.9 0.5L0 1L-0.9 0.5L-0.9 -0.5Z" fill="none" stroke="#a16dc1" stroke-width="1"></path></g><g transform="translate(640 251)"><path d="M0 -1L0.9 -0.5L0.9 0.5L0 1L-0.9 0.5L-0.9 -0.5Z" fill="none" stroke="#a16dc1" stroke-width="1"></path></g><g transform="translate(843 68)"><path d="M0 -12L10.4 -6L10.4 6L0 12L-10.4 6L-10.4 -6Z" fill="none" stroke="#a16dc1" stroke-width="1"></path></g><g transform="translate(157 207)"><path d="M0 -12L10.4 -6L10.4 6L0 12L-10.4 6L-10.4 -6Z" fill="none" stroke="#a16dc1" stroke-width="1"></path></g><g transform="translate(735 452)"><path d="M0 -9L7.8 -4.5L7.8 4.5L0 9L-7.8 4.5L-7.8 -4.5Z" fill="none" stroke="#a16dc1" stroke-width="1"></path></g><g transform="translate(82 286)"><path d="M0 -11L9.5 -5.5L9.5 5.5L0 11L-9.5 5.5L-9.5 -5.5Z" fill="none" stroke="#a16dc1" stroke-width="1"></path></g><g transform="translate(325 361)"><path d="M0 -9L7.8 -4.5L7.8 4.5L0 9L-7.8 4.5L-7.8 -4.5Z" fill="none" stroke="#a16dc1" stroke-width="1"></path></g><g transform="translate(475 407)"><path d="M0 -9L7.8 -4.5L7.8 4.5L0 9L-7.8 4.5L-7.8 -4.5Z" fill="none" stroke="#a16dc1" stroke-width="1"></path></g><g transform="translate(897 190)"><path d="M0 -8L6.9 -4L6.9 4L0 8L-6.9 4L-6.9 -4Z" fill="none" stroke="#a16dc1" stroke-width="1"></path></g><g transform="translate(700 205)"><path d="M0 -5L4.3 -2.5L4.3 2.5L0 5L-4.3 2.5L-4.3 -2.5Z" fill="none" stroke="#a16dc1" stroke-width="1"></path></g><g transform="translate(248 336)"><path d="M0 -1L0.9 -0.5L0.9 0.5L0 1L-0.9 0.5L-0.9 -0.5Z" fill="none" stroke="#a16dc1" stroke-width="1"></path></g><g transform="translate(891 90)"><path d="M0 -1L0.9 -0.5L0.9 0.5L0 1L-0.9 0.5L-0.9 -0.5Z" fill="none" stroke="#a16dc1" stroke-width="1"></path></g><g transform="translate(327 458)"><path d="M0 -3L2.6 -1.5L2.6 1.5L0 3L-2.6 1.5L-2.6 -1.5Z" fill="none" stroke="#a16dc1" stroke-width="1"></path></g><g transform="translate(630 560)"><path d="M0 -3L2.6 -1.5L2.6 1.5L0 3L-2.6 1.5L-2.6 -1.5Z" fill="none" stroke="#a16dc1" stroke-width="1"></path></g><g transform="translate(612 505)"><path d="M0 -5L4.3 -2.5L4.3 2.5L0 5L-4.3 2.5L-4.3 -2.5Z" fill="none" stroke="#a16dc1" stroke-width="1"></path></g><g transform="translate(359 557)"><path d="M0 -5L4.3 -2.5L4.3 2.5L0 5L-4.3 2.5L-4.3 -2.5Z" fill="none" stroke="#a16dc1" stroke-width="1"></path></g><g transform="translate(394 442)"><path d="M0 -1L0.9 -0.5L0.9 0.5L0 1L-0.9 0.5L-0.9 -0.5Z" fill="none" stroke="#a16dc1" stroke-width="1"></path></g><g transform="translate(28 506)"><path d="M0 -1L0.9 -0.5L0.9 0.5L0 1L-0.9 0.5L-0.9 -0.5Z" fill="none" stroke="#a16dc1" stroke-width="1"></path></g><g transform="translate(201 253)"><path d="M0 -2L1.7 -1L1.7 1L0 2L-1.7 1L-1.7 -1Z" fill="none" stroke="#a16dc1" stroke-width="1"></path></g><g transform="translate(2 596)"><path d="M0 -1L0.9 -0.5L0.9 0.5L0 1L-0.9 0.5L-0.9 -0.5Z" fill="none" stroke="#a16dc1" stroke-width="1"></path></g><g transform="translate(481 130)"><path d="M0 -9L7.8 -4.5L7.8 4.5L0 9L-7.8 4.5L-7.8 -4.5Z" fill="none" stroke="#a16dc1" stroke-width="1"></path></g><g transform="translate(398 287)"><path d="M0 -12L10.4 -6L10.4 6L0 12L-10.4 6L-10.4 -6Z" fill="none" stroke="#a16dc1" stroke-width="1"></path></g><g transform="translate(169 525)"><path d="M0 -10L8.7 -5L8.7 5L0 10L-8.7 5L-8.7 -5Z" fill="none" stroke="#a16dc1" stroke-width="1"></path></g><g transform="translate(377 419)"><path d="M0 -12L10.4 -6L10.4 6L0 12L-10.4 6L-10.4 -6Z" fill="none" stroke="#a16dc1" stroke-width="1"></path></g><g transform="translate(19 211)"><path d="M0 -2L1.7 -1L1.7 1L0 2L-1.7 1L-1.7 -1Z" fill="none" stroke="#a16dc1" stroke-width="1"></path></g><g transform="translate(619 40)"><path d="M0 -11L9.5 -5.5L9.5 5.5L0 11L-9.5 5.5L-9.5 -5.5Z" fill="none" stroke="#a16dc1" stroke-width="1"></path></g><g transform="translate(782 32)"><path d="M0 -10L8.7 -5L8.7 5L0 10L-8.7 5L-8.7 -5Z" fill="none" stroke="#a16dc1" stroke-width="1"></path></g><g transform="translate(252 41)"><path d="M0 -1L0.9 -0.5L0.9 0.5L0 1L-0.9 0.5L-0.9 -0.5Z" fill="none" stroke="#a16dc1" stroke-width="1"></path></g><g transform="translate(304 52)"><path d="M0 -8L6.9 -4L6.9 4L0 8L-6.9 4L-6.9 -4Z" fill="none" stroke="#a16dc1" stroke-width="1"></path></g><g transform="translate(210 67)"><path d="M0 -10L8.7 -5L8.7 5L0 10L-8.7 5L-8.7 -5Z" fill="none" stroke="#a16dc1" stroke-width="1"></path></g><g transform="translate(565 505)"><path d="M0 -3L2.6 -1.5L2.6 1.5L0 3L-2.6 1.5L-2.6 -1.5Z" fill="none" stroke="#a16dc1" stroke-width="1"></path></g><g transform="translate(239 299)"><path d="M0 -12L10.4 -6L10.4 6L0 12L-10.4 6L-10.4 -6Z" fill="none" stroke="#a16dc1" stroke-width="1"></path></g><g transform="translate(214 171)"><path d="M0 -4L3.5 -2L3.5 2L0 4L-3.5 2L-3.5 -2Z" fill="none" stroke="#a16dc1" stroke-width="1"></path></g><g transform="translate(526 335)"><path d="M0 -6L5.2 -3L5.2 3L0 6L-5.2 3L-5.2 -3Z" fill="none" stroke="#a16dc1" stroke-width="1"></path></g><g transform="translate(33 586)"><path d="M0 -10L8.7 -5L8.7 5L0 10L-8.7 5L-8.7 -5Z" fill="none" stroke="#a16dc1" stroke-width="1"></path></g><g transform="translate(148 545)"><path d="M0 -4L3.5 -2L3.5 2L0 4L-3.5 2L-3.5 -2Z" fill="none" stroke="#a16dc1" stroke-width="1"></path></g><g transform="translate(438 379)"><path d="M0 -10L8.7 -5L8.7 5L0 10L-8.7 5L-8.7 -5Z" fill="none" stroke="#a16dc1" stroke-width="1"></path></g><g transform="translate(586 296)"><path d="M0 -1L0.9 -0.5L0.9 0.5L0 1L-0.9 0.5L-0.9 -0.5Z" fill="none" stroke="#a16dc1" stroke-width="1"></path></g><g transform="translate(599 426)"><path d="M0 -7L6.1 -3.5L6.1 3.5L0 7L-6.1 3.5L-6.1 -3.5Z" fill="none" stroke="#a16dc1" stroke-width="1"></path></g><g transform="translate(653 209)"><path d="M0 -1L0.9 -0.5L0.9 0.5L0 1L-0.9 0.5L-0.9 -0.5Z" fill="none" stroke="#a16dc1" stroke-width="1"></path></g><g transform="translate(441 176)"><path d="M0 -1L0.9 -0.5L0.9 0.5L0 1L-0.9 0.5L-0.9 -0.5Z" fill="none" stroke="#a16dc1" stroke-width="1"></path></g><g transform="translate(180 561)"><path d="M0 -7L6.1 -3.5L6.1 3.5L0 7L-6.1 3.5L-6.1 -3.5Z" fill="none" stroke="#a16dc1" stroke-width="1"></path></g><g transform="translate(153 476)"><path d="M0 -3L2.6 -1.5L2.6 1.5L0 3L-2.6 1.5L-2.6 -1.5Z" fill="none" stroke="#a16dc1" stroke-width="1"></path></g><g transform="translate(717 365)"><path d="M0 -9L7.8 -4.5L7.8 4.5L0 9L-7.8 4.5L-7.8 -4.5Z" fill="none" stroke="#a16dc1" stroke-width="1"></path></g><g transform="translate(701 88)"><path d="M0 -7L6.1 -3.5L6.1 3.5L0 7L-6.1 3.5L-6.1 -3.5Z" fill="none" stroke="#a16dc1" stroke-width="1"></path></g><g transform="translate(866 334)"><path d="M0 -4L3.5 -2L3.5 2L0 4L-3.5 2L-3.5 -2Z" fill="none" stroke="#a16dc1" stroke-width="1"></path></g><g transform="translate(584 23)"><path d="M0 -9L7.8 -4.5L7.8 4.5L0 9L-7.8 4.5L-7.8 -4.5Z" fill="none" stroke="#a16dc1" stroke-width="1"></path></g><g transform="translate(679 230)"><path d="M0 -1L0.9 -0.5L0.9 0.5L0 1L-0.9 0.5L-0.9 -0.5Z" fill="none" stroke="#a16dc1" stroke-width="1"></path></g><g transform="translate(99 462)"><path d="M0 -10L8.7 -5L8.7 5L0 10L-8.7 5L-8.7 -5Z" fill="none" stroke="#a16dc1" stroke-width="1"></path></g><g transform="translate(408 3)"><path d="M0 -9L7.8 -4.5L7.8 4.5L0 9L-7.8 4.5L-7.8 -4.5Z" fill="none" stroke="#a16dc1" stroke-width="1"></path></g><g transform="translate(236 449)"><path d="M0 -3L2.6 -1.5L2.6 1.5L0 3L-2.6 1.5L-2.6 -1.5Z" fill="none" stroke="#a16dc1" stroke-width="1"></path></g><g transform="translate(548 465)"><path d="M0 -8L6.9 -4L6.9 4L0 8L-6.9 4L-6.9 -4Z" fill="none" stroke="#a16dc1" stroke-width="1"></path></g><g transform="translate(552 358)"><path d="M0 -10L8.7 -5L8.7 5L0 10L-8.7 5L-8.7 -5Z" fill="none" stroke="#a16dc1" stroke-width="1"></path></g><g transform="translate(775 440)"><path d="M0 -6L5.2 -3L5.2 3L0 6L-5.2 3L-5.2 -3Z" fill="none" stroke="#a16dc1" stroke-width="1"></path></g><g transform="translate(6 301)"><path d="M0 -4L3.5 -2L3.5 2L0 4L-3.5 2L-3.5 -2Z" fill="none" stroke="#a16dc1" stroke-width="1"></path></g><g transform="translate(655 157)"><path d="M0 -5L4.3 -2.5L4.3 2.5L0 5L-4.3 2.5L-4.3 -2.5Z" fill="none" stroke="#a16dc1" stroke-width="1"></path></g><g transform="translate(803 553)"><path d="M0 -6L5.2 -3L5.2 3L0 6L-5.2 3L-5.2 -3Z" fill="none" stroke="#a16dc1" stroke-width="1"></path></g><g transform="translate(420 254)"><path d="M0 -12L10.4 -6L10.4 6L0 12L-10.4 6L-10.4 -6Z" fill="none" stroke="#a16dc1" stroke-width="1"></path></g><g transform="translate(832 444)"><path d="M0 -10L8.7 -5L8.7 5L0 10L-8.7 5L-8.7 -5Z" fill="none" stroke="#a16dc1" stroke-width="1"></path></g><g transform="translate(136 399)"><path d="M0 -11L9.5 -5.5L9.5 5.5L0 11L-9.5 5.5L-9.5 -5.5Z" fill="none" stroke="#a16dc1" stroke-width="1"></path></g><g transform="translate(519 180)"><path d="M0 -4L3.5 -2L3.5 2L0 4L-3.5 2L-3.5 -2Z" fill="none" stroke="#a16dc1" stroke-width="1"></path></g><g transform="translate(274 127)"><path d="M0 -8L6.9 -4L6.9 4L0 8L-6.9 4L-6.9 -4Z" fill="none" stroke="#a16dc1" stroke-width="1"></path></g><g transform="translate(64 376)"><path d="M0 -3L2.6 -1.5L2.6 1.5L0 3L-2.6 1.5L-2.6 -1.5Z" fill="none" stroke="#a16dc1" stroke-width="1"></path></g><g transform="translate(382 111)"><path d="M0 -2L1.7 -1L1.7 1L0 2L-1.7 1L-1.7 -1Z" fill="none" stroke="#a16dc1" stroke-width="1"></path></g><g transform="translate(133 31)"><path d="M0 -11L9.5 -5.5L9.5 5.5L0 11L-9.5 5.5L-9.5 -5.5Z" fill="none" stroke="#a16dc1" stroke-width="1"></path></g><g transform="translate(883 519)"><path d="M0 -6L5.2 -3L5.2 3L0 6L-5.2 3L-5.2 -3Z" fill="none" stroke="#a16dc1" stroke-width="1"></path></g><g transform="translate(98 108)"><path d="M0 -1L0.9 -0.5L0.9 0.5L0 1L-0.9 0.5L-0.9 -0.5Z" fill="none" stroke="#a16dc1" stroke-width="1"></path></g><g transform="translate(263 312)"><path d="M0 -8L6.9 -4L6.9 4L0 8L-6.9 4L-6.9 -4Z" fill="none" stroke="#a16dc1" stroke-width="1"></path></g><g transform="translate(835 500)"><path d="M0 -5L4.3 -2.5L4.3 2.5L0 5L-4.3 2.5L-4.3 -2.5Z" fill="none" stroke="#a16dc1" stroke-width="1"></path></g><g transform="translate(171 87)"><path d="M0 -2L1.7 -1L1.7 1L0 2L-1.7 1L-1.7 -1Z" fill="none" stroke="#a16dc1" stroke-width="1"></path></g><g transform="translate(507 596)"><path d="M0 -7L6.1 -3.5L6.1 3.5L0 7L-6.1 3.5L-6.1 -3.5Z" fill="none" stroke="#a16dc1" stroke-width="1"></path></g><g transform="translate(543 520)"><path d="M0 -1L0.9 -0.5L0.9 0.5L0 1L-0.9 0.5L-0.9 -0.5Z" fill="none" stroke="#a16dc1" stroke-width="1"></path></g><g transform="translate(891 560)"><path d="M0 -9L7.8 -4.5L7.8 4.5L0 9L-7.8 4.5L-7.8 -4.5Z" fill="none" stroke="#a16dc1" stroke-width="1"></path></g><g transform="translate(110 216)"><path d="M0 -1L0.9 -0.5L0.9 0.5L0 1L-0.9 0.5L-0.9 -0.5Z" fill="none" stroke="#a16dc1" stroke-width="1"></path></g><g transform="translate(493 49)"><path d="M0 -6L5.2 -3L5.2 3L0 6L-5.2 3L-5.2 -3Z" fill="none" stroke="#a16dc1" stroke-width="1"></path></g><g transform="translate(108 21)"><path d="M0 -4L3.5 -2L3.5 2L0 4L-3.5 2L-3.5 -2Z" fill="none" stroke="#a16dc1" stroke-width="1"></path></g><g transform="translate(749 3)"><path d="M0 -5L4.3 -2.5L4.3 2.5L0 5L-4.3 2.5L-4.3 -2.5Z" fill="none" stroke="#a16dc1" stroke-width="1"></path></g><g transform="translate(605 7)"><path d="M0 -3L2.6 -1.5L2.6 1.5L0 3L-2.6 1.5L-2.6 -1.5Z" fill="none" stroke="#a16dc1" stroke-width="1"></path></g><g transform="translate(183 466)"><path d="M0 -9L7.8 -4.5L7.8 4.5L0 9L-7.8 4.5L-7.8 -4.5Z" fill="none" stroke="#a16dc1" stroke-width="1"></path></g><g transform="translate(362 315)"><path d="M0 -8L6.9 -4L6.9 4L0 8L-6.9 4L-6.9 -4Z" fill="none" stroke="#a16dc1" stroke-width="1"></path></g><g transform="translate(437 561)"><path d="M0 -12L10.4 -6L10.4 6L0 12L-10.4 6L-10.4 -6Z" fill="none" stroke="#a16dc1" stroke-width="1"></path></g><g transform="translate(5 151)"><path d="M0 -10L8.7 -5L8.7 5L0 10L-8.7 5L-8.7 -5Z" fill="none" stroke="#a16dc1" stroke-width="1"></path></g><g transform="translate(27 3)"><path d="M0 -8L6.9 -4L6.9 4L0 8L-6.9 4L-6.9 -4Z" fill="none" stroke="#a16dc1" stroke-width="1"></path></g><g transform="translate(32 90)"><path d="M0 -9L7.8 -4.5L7.8 4.5L0 9L-7.8 4.5L-7.8 -4.5Z" fill="none" stroke="#a16dc1" stroke-width="1"></path></g><g transform="translate(817 358)"><path d="M0 -11L9.5 -5.5L9.5 5.5L0 11L-9.5 5.5L-9.5 -5.5Z" fill="none" stroke="#a16dc1" stroke-width="1"></path></g><g transform="translate(852 11)"><path d="M0 -12L10.4 -6L10.4 6L0 12L-10.4 6L-10.4 -6Z" fill="none" stroke="#a16dc1" stroke-width="1"></path></g><g transform="translate(557 42)"><path d="M0 -7L6.1 -3.5L6.1 3.5L0 7L-6.1 3.5L-6.1 -3.5Z" fill="none" stroke="#a16dc1" stroke-width="1"></path></g><g transform="translate(615 589)"><path d="M0 -5L4.3 -2.5L4.3 2.5L0 5L-4.3 2.5L-4.3 -2.5Z" fill="none" stroke="#a16dc1" stroke-width="1"></path></g><g transform="translate(810 332)"><path d="M0 -5L4.3 -2.5L4.3 2.5L0 5L-4.3 2.5L-4.3 -2.5Z" fill="none" stroke="#a16dc1" stroke-width="1"></path></g><g transform="translate(442 495)"><path d="M0 -9L7.8 -4.5L7.8 4.5L0 9L-7.8 4.5L-7.8 -4.5Z" fill="none" stroke="#a16dc1" stroke-width="1"></path></g><g transform="translate(59 61)"><path d="M0 -3L2.6 -1.5L2.6 1.5L0 3L-2.6 1.5L-2.6 -1.5Z" fill="none" stroke="#a16dc1" stroke-width="1"></path></g><g transform="translate(726 254)"><path d="M0 -7L6.1 -3.5L6.1 3.5L0 7L-6.1 3.5L-6.1 -3.5Z" fill="none" stroke="#a16dc1" stroke-width="1"></path></g><g transform="translate(694 126)"><path d="M0 -4L3.5 -2L3.5 2L0 4L-3.5 2L-3.5 -2Z" fill="none" stroke="#a16dc1" stroke-width="1"></path></g><g transform="translate(496 491)"><path d="M0 -3L2.6 -1.5L2.6 1.5L0 3L-2.6 1.5L-2.6 -1.5Z" fill="none" stroke="#a16dc1" stroke-width="1"></path></g><g transform="translate(245 419)"><path d="M0 -9L7.8 -4.5L7.8 4.5L0 9L-7.8 4.5L-7.8 -4.5Z" fill="none" stroke="#a16dc1" stroke-width="1"></path></g><g transform="translate(523 97)"><path d="M0 -8L6.9 -4L6.9 4L0 8L-6.9 4L-6.9 -4Z" fill="none" stroke="#a16dc1" stroke-width="1"></path></g><g transform="translate(522 405)"><path d="M0 -9L7.8 -4.5L7.8 4.5L0 9L-7.8 4.5L-7.8 -4.5Z" fill="none" stroke="#a16dc1" stroke-width="1"></path></g><g transform="translate(535 205)"><path d="M0 -7L6.1 -3.5L6.1 3.5L0 7L-6.1 3.5L-6.1 -3.5Z" fill="none" stroke="#a16dc1" stroke-width="1"></path></g><g transform="translate(592 350)"><path d="M0 -11L9.5 -5.5L9.5 5.5L0 11L-9.5 5.5L-9.5 -5.5Z" fill="none" stroke="#a16dc1" stroke-width="1"></path></g><g transform="translate(185 41)"><path d="M0 -8L6.9 -4L6.9 4L0 8L-6.9 4L-6.9 -4Z" fill="none" stroke="#a16dc1" stroke-width="1"></path></g><g transform="translate(848 226)"><path d="M0 -3L2.6 -1.5L2.6 1.5L0 3L-2.6 1.5L-2.6 -1.5Z" fill="none" stroke="#a16dc1" stroke-width="1"></path></g><g transform="translate(733 214)"><path d="M0 -1L0.9 -0.5L0.9 0.5L0 1L-0.9 0.5L-0.9 -0.5Z" fill="none" stroke="#a16dc1" stroke-width="1"></path></g><g transform="translate(593 58)"><path d="M0 -6L5.2 -3L5.2 3L0 6L-5.2 3L-5.2 -3Z" fill="none" stroke="#a16dc1" stroke-width="1"></path></g><g transform="translate(524 488)"><path d="M0 -2L1.7 -1L1.7 1L0 2L-1.7 1L-1.7 -1Z" fill="none" stroke="#a16dc1" stroke-width="1"></path></g><g transform="translate(47 294)"><path d="M0 -10L8.7 -5L8.7 5L0 10L-8.7 5L-8.7 -5Z" fill="none" stroke="#a16dc1" stroke-width="1"></path></g><g transform="translate(148 303)"><path d="M0 -2L1.7 -1L1.7 1L0 2L-1.7 1L-1.7 -1Z" fill="none" stroke="#a16dc1" stroke-width="1"></path></g><g transform="translate(708 516)"><path d="M0 -2L1.7 -1L1.7 1L0 2L-1.7 1L-1.7 -1Z" fill="none" stroke="#a16dc1" stroke-width="1"></path></g><g transform="translate(445 535)"><path d="M0 -7L6.1 -3.5L6.1 3.5L0 7L-6.1 3.5L-6.1 -3.5Z" fill="none" stroke="#a16dc1" stroke-width="1"></path></g><g transform="translate(349 443)"><path d="M0 -6L5.2 -3L5.2 3L0 6L-5.2 3L-5.2 -3Z" fill="none" stroke="#a16dc1" stroke-width="1"></path></g><g transform="translate(893 147)"><path d="M0 -12L10.4 -6L10.4 6L0 12L-10.4 6L-10.4 -6Z" fill="none" stroke="#a16dc1" stroke-width="1"></path></g><g transform="translate(202 331)"><path d="M0 -9L7.8 -4.5L7.8 4.5L0 9L-7.8 4.5L-7.8 -4.5Z" fill="none" stroke="#a16dc1" stroke-width="1"></path></g><g transform="translate(334 15)"><path d="M0 -3L2.6 -1.5L2.6 1.5L0 3L-2.6 1.5L-2.6 -1.5Z" fill="none" stroke="#a16dc1" stroke-width="1"></path></g><g transform="translate(578 125)"><path d="M0 -1L0.9 -0.5L0.9 0.5L0 1L-0.9 0.5L-0.9 -0.5Z" fill="none" stroke="#a16dc1" stroke-width="1"></path></g><g transform="translate(724 126)"><path d="M0 -11L9.5 -5.5L9.5 5.5L0 11L-9.5 5.5L-9.5 -5.5Z" fill="none" stroke="#a16dc1" stroke-width="1"></path></g><g transform="translate(691 467)"><path d="M0 -6L5.2 -3L5.2 3L0 6L-5.2 3L-5.2 -3Z" fill="none" stroke="#a16dc1" stroke-width="1"></path></g><g transform="translate(482 446)"><path d="M0 -5L4.3 -2.5L4.3 2.5L0 5L-4.3 2.5L-4.3 -2.5Z" fill="none" stroke="#a16dc1" stroke-width="1"></path></g><g transform="translate(674 324)"><path d="M0 -1L0.9 -0.5L0.9 0.5L0 1L-0.9 0.5L-0.9 -0.5Z" fill="none" stroke="#a16dc1" stroke-width="1"></path></g><g transform="translate(850 529)"><path d="M0 -2L1.7 -1L1.7 1L0 2L-1.7 1L-1.7 -1Z" fill="none" stroke="#a16dc1" stroke-width="1"></path></g><g transform="translate(302 242)"><path d="M0 -6L5.2 -3L5.2 3L0 6L-5.2 3L-5.2 -3Z" fill="none" stroke="#a16dc1" stroke-width="1"></path></g><g transform="translate(561 201)"><path d="M0 -10L8.7 -5L8.7 5L0 10L-8.7 5L-8.7 -5Z" fill="none" stroke="#a16dc1" stroke-width="1"></path></g><g transform="translate(365 193)"><path d="M0 -3L2.6 -1.5L2.6 1.5L0 3L-2.6 1.5L-2.6 -1.5Z" fill="none" stroke="#a16dc1" stroke-width="1"></path></g><g transform="translate(691 358)"><path d="M0 -4L3.5 -2L3.5 2L0 4L-3.5 2L-3.5 -2Z" fill="none" stroke="#a16dc1" stroke-width="1"></path></g><g transform="translate(292 417)"><path d="M0 -2L1.7 -1L1.7 1L0 2L-1.7 1L-1.7 -1Z" fill="none" stroke="#a16dc1" stroke-width="1"></path></g><g transform="translate(216 355)"><path d="M0 -12L10.4 -6L10.4 6L0 12L-10.4 6L-10.4 -6Z" fill="none" stroke="#a16dc1" stroke-width="1"></path></g><g transform="translate(550 257)"><path d="M0 -4L3.5 -2L3.5 2L0 4L-3.5 2L-3.5 -2Z" fill="none" stroke="#a16dc1" stroke-width="1"></path></g><g transform="translate(733 425)"><path d="M0 -3L2.6 -1.5L2.6 1.5L0 3L-2.6 1.5L-2.6 -1.5Z" fill="none" stroke="#a16dc1" stroke-width="1"></path></g><g transform="translate(286 451)"><path d="M0 -3L2.6 -1.5L2.6 1.5L0 3L-2.6 1.5L-2.6 -1.5Z" fill="none" stroke="#a16dc1" stroke-width="1"></path></g><g transform="translate(659 46)"><path d="M0 -6L5.2 -3L5.2 3L0 6L-5.2 3L-5.2 -3Z" fill="none" stroke="#a16dc1" stroke-width="1"></path></g><g transform="translate(251 545)"><path d="M0 -5L4.3 -2.5L4.3 2.5L0 5L-4.3 2.5L-4.3 -2.5Z" fill="none" stroke="#a16dc1" stroke-width="1"></path></g><g transform="translate(418 420)"><path d="M0 -8L6.9 -4L6.9 4L0 8L-6.9 4L-6.9 -4Z" fill="none" stroke="#a16dc1" stroke-width="1"></path></g><g transform="translate(190 441)"><path d="M0 -5L4.3 -2.5L4.3 2.5L0 5L-4.3 2.5L-4.3 -2.5Z" fill="none" stroke="#a16dc1" stroke-width="1"></path></g><g transform="translate(334 419)"><path d="M0 -3L2.6 -1.5L2.6 1.5L0 3L-2.6 1.5L-2.6 -1.5Z" fill="none" stroke="#a16dc1" stroke-width="1"></path></g><g transform="translate(730 540)"><path d="M0 -3L2.6 -1.5L2.6 1.5L0 3L-2.6 1.5L-2.6 -1.5Z" fill="none" stroke="#a16dc1" stroke-width="1"></path></g><g transform="translate(402 130)"><path d="M0 -1L0.9 -0.5L0.9 0.5L0 1L-0.9 0.5L-0.9 -0.5Z" fill="none" stroke="#a16dc1" stroke-width="1"></path></g><g transform="translate(727 183)"><path d="M0 -6L5.2 -3L5.2 3L0 6L-5.2 3L-5.2 -3Z" fill="none" stroke="#a16dc1" stroke-width="1"></path></g><g transform="translate(663 598)"><path d="M0 -4L3.5 -2L3.5 2L0 4L-3.5 2L-3.5 -2Z" fill="none" stroke="#a16dc1" stroke-width="1"></path></g><g transform="translate(765 536)"><path d="M0 -11L9.5 -5.5L9.5 5.5L0 11L-9.5 5.5L-9.5 -5.5Z" fill="none" stroke="#a16dc1" stroke-width="1"></path></g><g transform="translate(762 252)"><path d="M0 -4L3.5 -2L3.5 2L0 4L-3.5 2L-3.5 -2Z" fill="none" stroke="#a16dc1" stroke-width="1"></path></g><g transform="translate(893 5)"><path d="M0 -10L8.7 -5L8.7 5L0 10L-8.7 5L-8.7 -5Z" fill="none" stroke="#a16dc1" stroke-width="1"></path></g><g transform="translate(100 191)"><path d="M0 -9L7.8 -4.5L7.8 4.5L0 9L-7.8 4.5L-7.8 -4.5Z" fill="none" stroke="#a16dc1" stroke-width="1"></path></g><g transform="translate(703 60)"><path d="M0 -2L1.7 -1L1.7 1L0 2L-1.7 1L-1.7 -1Z" fill="none" stroke="#a16dc1" stroke-width="1"></path></g><g transform="translate(773 466)"><path d="M0 -1L0.9 -0.5L0.9 0.5L0 1L-0.9 0.5L-0.9 -0.5Z" fill="none" stroke="#a16dc1" stroke-width="1"></path></g><g transform="translate(757 190)"><path d="M0 -2L1.7 -1L1.7 1L0 2L-1.7 1L-1.7 -1Z" fill="none" stroke="#a16dc1" stroke-width="1"></path></g><g transform="translate(767 299)"><path d="M0 -6L5.2 -3L5.2 3L0 6L-5.2 3L-5.2 -3Z" fill="none" stroke="#a16dc1" stroke-width="1"></path></g><g transform="translate(448 317)"><path d="M0 -2L1.7 -1L1.7 1L0 2L-1.7 1L-1.7 -1Z" fill="none" stroke="#a16dc1" stroke-width="1"></path></g><g transform="translate(460 146)"><path d="M0 -6L5.2 -3L5.2 3L0 6L-5.2 3L-5.2 -3Z" fill="none" stroke="#a16dc1" stroke-width="1"></path></g><g transform="translate(258 80)"><path d="M0 -11L9.5 -5.5L9.5 5.5L0 11L-9.5 5.5L-9.5 -5.5Z" fill="none" stroke="#a16dc1" stroke-width="1"></path></g><g transform="translate(513 519)"><path d="M0 -8L6.9 -4L6.9 4L0 8L-6.9 4L-6.9 -4Z" fill="none" stroke="#a16dc1" stroke-width="1"></path></g><g transform="translate(286 292)"><path d="M0 -12L10.4 -6L10.4 6L0 12L-10.4 6L-10.4 -6Z" fill="none" stroke="#a16dc1" stroke-width="1"></path></g><g transform="translate(118 254)"><path d="M0 -10L8.7 -5L8.7 5L0 10L-8.7 5L-8.7 -5Z" fill="none" stroke="#a16dc1" stroke-width="1"></path></g><g transform="translate(692 577)"><path d="M0 -8L6.9 -4L6.9 4L0 8L-6.9 4L-6.9 -4Z" fill="none" stroke="#a16dc1" stroke-width="1"></path></g><g transform="translate(7 245)"><path d="M0 -3L2.6 -1.5L2.6 1.5L0 3L-2.6 1.5L-2.6 -1.5Z" fill="none" stroke="#a16dc1" stroke-width="1"></path></g><g transform="translate(334 199)"><path d="M0 -2L1.7 -1L1.7 1L0 2L-1.7 1L-1.7 -1Z" fill="none" stroke="#a16dc1" stroke-width="1"></path></g><g transform="translate(203 195)"><path d="M0 -12L10.4 -6L10.4 6L0 12L-10.4 6L-10.4 -6Z" fill="none" stroke="#a16dc1" stroke-width="1"></path></g><g transform="translate(473 378)"><path d="M0 -2L1.7 -1L1.7 1L0 2L-1.7 1L-1.7 -1Z" fill="none" stroke="#a16dc1" stroke-width="1"></path></g><g transform="translate(81 140)"><path d="M0 -7L6.1 -3.5L6.1 3.5L0 7L-6.1 3.5L-6.1 -3.5Z" fill="none" stroke="#a16dc1" stroke-width="1"></path></g><g transform="translate(600 556)"><path d="M0 -8L6.9 -4L6.9 4L0 8L-6.9 4L-6.9 -4Z" fill="none" stroke="#a16dc1" stroke-width="1"></path></g><g transform="translate(293 515)"><path d="M0 -4L3.5 -2L3.5 2L0 4L-3.5 2L-3.5 -2Z" fill="none" stroke="#a16dc1" stroke-width="1"></path></g><g transform="translate(12 570)"><path d="M0 -3L2.6 -1.5L2.6 1.5L0 3L-2.6 1.5L-2.6 -1.5Z" fill="none" stroke="#a16dc1" stroke-width="1"></path></g><g transform="translate(341 386)"><path d="M0 -4L3.5 -2L3.5 2L0 4L-3.5 2L-3.5 -2Z" fill="none" stroke="#a16dc1" stroke-width="1"></path></g><g transform="translate(824 129)"><path d="M0 -12L10.4 -6L10.4 6L0 12L-10.4 6L-10.4 -6Z" fill="none" stroke="#a16dc1" stroke-width="1"></path></g><g transform="translate(810 16)"><path d="M0 -2L1.7 -1L1.7 1L0 2L-1.7 1L-1.7 -1Z" fill="none" stroke="#a16dc1" stroke-width="1"></path></g><g transform="translate(131 3)"><path d="M0 -6L5.2 -3L5.2 3L0 6L-5.2 3L-5.2 -3Z" fill="none" stroke="#a16dc1" stroke-width="1"></path></g><g transform="translate(247 152)"><path d="M0 -7L6.1 -3.5L6.1 3.5L0 7L-6.1 3.5L-6.1 -3.5Z" fill="none" stroke="#a16dc1" stroke-width="1"></path></g><g transform="translate(891 325)"><path d="M0 -10L8.7 -5L8.7 5L0 10L-8.7 5L-8.7 -5Z" fill="none" stroke="#a16dc1" stroke-width="1"></path></g><g transform="translate(735 156)"><path d="M0 -8L6.9 -4L6.9 4L0 8L-6.9 4L-6.9 -4Z" fill="none" stroke="#a16dc1" stroke-width="1"></path></g><g transform="translate(781 271)"><path d="M0 -7L6.1 -3.5L6.1 3.5L0 7L-6.1 3.5L-6.1 -3.5Z" fill="none" stroke="#a16dc1" stroke-width="1"></path></g><g transform="translate(811 259)"><path d="M0 -2L1.7 -1L1.7 1L0 2L-1.7 1L-1.7 -1Z" fill="none" stroke="#a16dc1" stroke-width="1"></path></g><g transform="translate(686 35)"><path d="M0 -11L9.5 -5.5L9.5 5.5L0 11L-9.5 5.5L-9.5 -5.5Z" fill="none" stroke="#a16dc1" stroke-width="1"></path></g><g transform="translate(576 327)"><path d="M0 -8L6.9 -4L6.9 4L0 8L-6.9 4L-6.9 -4Z" fill="none" stroke="#a16dc1" stroke-width="1"></path></g><g transform="translate(881 31)"><path d="M0 -4L3.5 -2L3.5 2L0 4L-3.5 2L-3.5 -2Z" fill="none" stroke="#a16dc1" stroke-width="1"></path></g><g transform="translate(37 191)"><path d="M0 -10L8.7 -5L8.7 5L0 10L-8.7 5L-8.7 -5Z" fill="none" stroke="#a16dc1" stroke-width="1"></path></g><g transform="translate(432 458)"><path d="M0 -2L1.7 -1L1.7 1L0 2L-1.7 1L-1.7 -1Z" fill="none" stroke="#a16dc1" stroke-width="1"></path></g><g transform="translate(632 527)"><path d="M0 -3L2.6 -1.5L2.6 1.5L0 3L-2.6 1.5L-2.6 -1.5Z" fill="none" stroke="#a16dc1" stroke-width="1"></path></g><g transform="translate(854 180)"><path d="M0 -10L8.7 -5L8.7 5L0 10L-8.7 5L-8.7 -5Z" fill="none" stroke="#a16dc1" stroke-width="1"></path></g><g transform="translate(762 81)"><path d="M0 -10L8.7 -5L8.7 5L0 10L-8.7 5L-8.7 -5Z" fill="none" stroke="#a16dc1" stroke-width="1"></path></g><g transform="translate(810 590)"><path d="M0 -3L2.6 -1.5L2.6 1.5L0 3L-2.6 1.5L-2.6 -1.5Z" fill="none" stroke="#a16dc1" stroke-width="1"></path></g><g transform="translate(391 326)"><path d="M0 -6L5.2 -3L5.2 3L0 6L-5.2 3L-5.2 -3Z" fill="none" stroke="#a16dc1" stroke-width="1"></path></g><g transform="translate(595 395)"><path d="M0 -12L10.4 -6L10.4 6L0 12L-10.4 6L-10.4 -6Z" fill="none" stroke="#a16dc1" stroke-width="1"></path></g><g transform="translate(899 118)"><path d="M0 -7L6.1 -3.5L6.1 3.5L0 7L-6.1 3.5L-6.1 -3.5Z" fill="none" stroke="#a16dc1" stroke-width="1"></path></g><g transform="translate(59 493)"><path d="M0 -4L3.5 -2L3.5 2L0 4L-3.5 2L-3.5 -2Z" fill="none" stroke="#a16dc1" stroke-width="1"></path></g><g transform="translate(443 229)"><path d="M0 -3L2.6 -1.5L2.6 1.5L0 3L-2.6 1.5L-2.6 -1.5Z" fill="none" stroke="#a16dc1" stroke-width="1"></path></g><g transform="translate(77 560)"><path d="M0 -4L3.5 -2L3.5 2L0 4L-3.5 2L-3.5 -2Z" fill="none" stroke="#a16dc1" stroke-width="1"></path></g><g transform="translate(175 339)"><path d="M0 -1L0.9 -0.5L0.9 0.5L0 1L-0.9 0.5L-0.9 -0.5Z" fill="none" stroke="#a16dc1" stroke-width="1"></path></g><g transform="translate(874 378)"><path d="M0 -4L3.5 -2L3.5 2L0 4L-3.5 2L-3.5 -2Z" fill="none" stroke="#a16dc1" stroke-width="1"></path></g><g transform="translate(489 167)"><path d="M0 -8L6.9 -4L6.9 4L0 8L-6.9 4L-6.9 -4Z" fill="none" stroke="#a16dc1" stroke-width="1"></path></g><g transform="translate(774 493)"><path d="M0 -4L3.5 -2L3.5 2L0 4L-3.5 2L-3.5 -2Z" fill="none" stroke="#a16dc1" stroke-width="1"></path></g><g transform="translate(365 284)"><path d="M0 -2L1.7 -1L1.7 1L0 2L-1.7 1L-1.7 -1Z" fill="none" stroke="#a16dc1" stroke-width="1"></path></g><g transform="translate(254 519)"><path d="M0 -7L6.1 -3.5L6.1 3.5L0 7L-6.1 3.5L-6.1 -3.5Z" fill="none" stroke="#a16dc1" stroke-width="1"></path></g><g transform="translate(707 308)"><path d="M0 -4L3.5 -2L3.5 2L0 4L-3.5 2L-3.5 -2Z" fill="none" stroke="#a16dc1" stroke-width="1"></path></g><g transform="translate(438 53)"><path d="M0 -2L1.7 -1L1.7 1L0 2L-1.7 1L-1.7 -1Z" fill="none" stroke="#a16dc1" stroke-width="1"></path></g><g transform="translate(393 218)"><path d="M0 -6L5.2 -3L5.2 3L0 6L-5.2 3L-5.2 -3Z" fill="none" stroke="#a16dc1" stroke-width="1"></path></g><g transform="translate(218 551)"><path d="M0 -2L1.7 -1L1.7 1L0 2L-1.7 1L-1.7 -1Z" fill="none" stroke="#a16dc1" stroke-width="1"></path></g><g transform="translate(108 134)"><path d="M0 -12L10.4 -6L10.4 6L0 12L-10.4 6L-10.4 -6Z" fill="none" stroke="#a16dc1" stroke-width="1"></path></g><g transform="translate(402 57)"><path d="M0 -6L5.2 -3L5.2 3L0 6L-5.2 3L-5.2 -3Z" fill="none" stroke="#a16dc1" stroke-width="1"></path></g><g transform="translate(719 23)"><path d="M0 -4L3.5 -2L3.5 2L0 4L-3.5 2L-3.5 -2Z" fill="none" stroke="#a16dc1" stroke-width="1"></path></g><g transform="translate(160 375)"><path d="M0 -6L5.2 -3L5.2 3L0 6L-5.2 3L-5.2 -3Z" fill="none" stroke="#a16dc1" stroke-width="1"></path></g><g transform="translate(301 328)"><path d="M0 -9L7.8 -4.5L7.8 4.5L0 9L-7.8 4.5L-7.8 -4.5Z" fill="none" stroke="#a16dc1" stroke-width="1"></path></g><g transform="translate(171 401)"><path d="M0 -4L3.5 -2L3.5 2L0 4L-3.5 2L-3.5 -2Z" fill="none" stroke="#a16dc1" stroke-width="1"></path></g><g transform="translate(549 310)"><path d="M0 -12L10.4 -6L10.4 6L0 12L-10.4 6L-10.4 -6Z" fill="none" stroke="#a16dc1" stroke-width="1"></path></g><g transform="translate(168 255)"><path d="M0 -4L3.5 -2L3.5 2L0 4L-3.5 2L-3.5 -2Z" fill="none" stroke="#a16dc1" stroke-width="1"></path></g><g transform="translate(793 164)"><path d="M0 -7L6.1 -3.5L6.1 3.5L0 7L-6.1 3.5L-6.1 -3.5Z" fill="none" stroke="#a16dc1" stroke-width="1"></path></g><g transform="translate(809 414)"><path d="M0 -10L8.7 -5L8.7 5L0 10L-8.7 5L-8.7 -5Z" fill="none" stroke="#a16dc1" stroke-width="1"></path></g><g transform="translate(102 352)"><path d="M0 -1L0.9 -0.5L0.9 0.5L0 1L-0.9 0.5L-0.9 -0.5Z" fill="none" stroke="#a16dc1" stroke-width="1"></path></g><g transform="translate(336 531)"><path d="M0 -8L6.9 -4L6.9 4L0 8L-6.9 4L-6.9 -4Z" fill="none" stroke="#a16dc1" stroke-width="1"></path></g><g transform="translate(336 299)"><path d="M0 -2L1.7 -1L1.7 1L0 2L-1.7 1L-1.7 -1Z" fill="none" stroke="#a16dc1" stroke-width="1"></path></g><g transform="translate(755 578)"><path d="M0 -1L0.9 -0.5L0.9 0.5L0 1L-0.9 0.5L-0.9 -0.5Z" fill="none" stroke="#a16dc1" stroke-width="1"></path></g><g transform="translate(380 29)"><path d="M0 -7L6.1 -3.5L6.1 3.5L0 7L-6.1 3.5L-6.1 -3.5Z" fill="none" stroke="#a16dc1" stroke-width="1"></path></g><g transform="translate(670 439)"><path d="M0 -9L7.8 -4.5L7.8 4.5L0 9L-7.8 4.5L-7.8 -4.5Z" fill="none" stroke="#a16dc1" stroke-width="1"></path></g><g transform="translate(60 220)"><path d="M0 -1L0.9 -0.5L0.9 0.5L0 1L-0.9 0.5L-0.9 -0.5Z" fill="none" stroke="#a16dc1" stroke-width="1"></path></g><g transform="translate(8 365)"><path d="M0 -7L6.1 -3.5L6.1 3.5L0 7L-6.1 3.5L-6.1 -3.5Z" fill="none" stroke="#a16dc1" stroke-width="1"></path></g><g transform="translate(86 438)"><path d="M0 -3L2.6 -1.5L2.6 1.5L0 3L-2.6 1.5L-2.6 -1.5Z" fill="none" stroke="#a16dc1" stroke-width="1"></path></g><g transform="translate(132 525)"><path d="M0 -11L9.5 -5.5L9.5 5.5L0 11L-9.5 5.5L-9.5 -5.5Z" fill="none" stroke="#a16dc1" stroke-width="1"></path></g><g transform="translate(131 461)"><path d="M0 -1L0.9 -0.5L0.9 0.5L0 1L-0.9 0.5L-0.9 -0.5Z" fill="none" stroke="#a16dc1" stroke-width="1"></path></g><g transform="translate(183 286)"><path d="M0 -9L7.8 -4.5L7.8 4.5L0 9L-7.8 4.5L-7.8 -4.5Z" fill="none" stroke="#a16dc1" stroke-width="1"></path></g><g transform="translate(864 443)"><path d="M0 -1L0.9 -0.5L0.9 0.5L0 1L-0.9 0.5L-0.9 -0.5Z" fill="none" stroke="#a16dc1" stroke-width="1"></path></g><g transform="translate(421 112)"><path d="M0 -2L1.7 -1L1.7 1L0 2L-1.7 1L-1.7 -1Z" fill="none" stroke="#a16dc1" stroke-width="1"></path></g><g transform="translate(540 13)"><path d="M0 -8L6.9 -4L6.9 4L0 8L-6.9 4L-6.9 -4Z" fill="none" stroke="#a16dc1" stroke-width="1"></path></g><g transform="translate(484 578)"><path d="M0 -4L3.5 -2L3.5 2L0 4L-3.5 2L-3.5 -2Z" fill="none" stroke="#a16dc1" stroke-width="1"></path></g><g transform="translate(8 398)"><path d="M0 -11L9.5 -5.5L9.5 5.5L0 11L-9.5 5.5L-9.5 -5.5Z" fill="none" stroke="#a16dc1" stroke-width="1"></path></g><g transform="translate(382 498)"><path d="M0 -9L7.8 -4.5L7.8 4.5L0 9L-7.8 4.5L-7.8 -4.5Z" fill="none" stroke="#a16dc1" stroke-width="1"></path></g><g transform="translate(690 494)"><path d="M0 -9L7.8 -4.5L7.8 4.5L0 9L-7.8 4.5L-7.8 -4.5Z" fill="none" stroke="#a16dc1" stroke-width="1"></path></g><g transform="translate(19 541)"><path d="M0 -10L8.7 -5L8.7 5L0 10L-8.7 5L-8.7 -5Z" fill="none" stroke="#a16dc1" stroke-width="1"></path></g><g transform="translate(742 481)"><path d="M0 -5L4.3 -2.5L4.3 2.5L0 5L-4.3 2.5L-4.3 -2.5Z" fill="none" stroke="#a16dc1" stroke-width="1"></path></g><g transform="translate(611 85)"><path d="M0 -8L6.9 -4L6.9 4L0 8L-6.9 4L-6.9 -4Z" fill="none" stroke="#a16dc1" stroke-width="1"></path></g><g transform="translate(109 163)"><path d="M0 -4L3.5 -2L3.5 2L0 4L-3.5 2L-3.5 -2Z" fill="none" stroke="#a16dc1" stroke-width="1"></path></g><g transform="translate(315 596)"><path d="M0 -4L3.5 -2L3.5 2L0 4L-3.5 2L-3.5 -2Z" fill="none" stroke="#a16dc1" stroke-width="1"></path></g><g transform="translate(769 222)"><path d="M0 -12L10.4 -6L10.4 6L0 12L-10.4 6L-10.4 -6Z" fill="none" stroke="#a16dc1" stroke-width="1"></path></g><g transform="translate(310 545)"><path d="M0 -6L5.2 -3L5.2 3L0 6L-5.2 3L-5.2 -3Z" fill="none" stroke="#a16dc1" stroke-width="1"></path></g><g transform="translate(341 272)"><path d="M0 -12L10.4 -6L10.4 6L0 12L-10.4 6L-10.4 -6Z" fill="none" stroke="#a16dc1" stroke-width="1"></path></g><g transform="translate(410 485)"><path d="M0 -5L4.3 -2.5L4.3 2.5L0 5L-4.3 2.5L-4.3 -2.5Z" fill="none" stroke="#a16dc1" stroke-width="1"></path></g><g transform="translate(856 359)"><path d="M0 -10L8.7 -5L8.7 5L0 10L-8.7 5L-8.7 -5Z" fill="none" stroke="#a16dc1" stroke-width="1"></path></g><g transform="translate(894 412)"><path d="M0 -11L9.5 -5.5L9.5 5.5L0 11L-9.5 5.5L-9.5 -5.5Z" fill="none" stroke="#a16dc1" stroke-width="1"></path></g><g transform="translate(744 109)"><path d="M0 -1L0.9 -0.5L0.9 0.5L0 1L-0.9 0.5L-0.9 -0.5Z" fill="none" stroke="#a16dc1" stroke-width="1"></path></g><g transform="translate(173 182)"><path d="M0 -7L6.1 -3.5L6.1 3.5L0 7L-6.1 3.5L-6.1 -3.5Z" fill="none" stroke="#a16dc1" stroke-width="1"></path></g><g transform="translate(779 401)"><path d="M0 -6L5.2 -3L5.2 3L0 6L-5.2 3L-5.2 -3Z" fill="none" stroke="#a16dc1" stroke-width="1"></path></g><g transform="translate(276 338)"><path d="M0 -4L3.5 -2L3.5 2L0 4L-3.5 2L-3.5 -2Z" fill="none" stroke="#a16dc1" stroke-width="1"></path></g><g transform="translate(550 149)"><path d="M0 -3L2.6 -1.5L2.6 1.5L0 3L-2.6 1.5L-2.6 -1.5Z" fill="none" stroke="#a16dc1" stroke-width="1"></path></g><g transform="translate(857 102)"><path d="M0 -9L7.8 -4.5L7.8 4.5L0 9L-7.8 4.5L-7.8 -4.5Z" fill="none" stroke="#a16dc1" stroke-width="1"></path></g><g transform="translate(467 186)"><path d="M0 -8L6.9 -4L6.9 4L0 8L-6.9 4L-6.9 -4Z" fill="none" stroke="#a16dc1" stroke-width="1"></path></g><g transform="translate(28 123)"><path d="M0 -9L7.8 -4.5L7.8 4.5L0 9L-7.8 4.5L-7.8 -4.5Z" fill="none" stroke="#a16dc1" stroke-width="1"></path></g><g transform="translate(815 76)"><path d="M0 -9L7.8 -4.5L7.8 4.5L0 9L-7.8 4.5L-7.8 -4.5Z" fill="none" stroke="#a16dc1" stroke-width="1"></path></g><g transform="translate(715 334)"><path d="M0 -11L9.5 -5.5L9.5 5.5L0 11L-9.5 5.5L-9.5 -5.5Z" fill="none" stroke="#a16dc1" stroke-width="1"></path></g><g transform="translate(870 305)"><path d="M0 -5L4.3 -2.5L4.3 2.5L0 5L-4.3 2.5L-4.3 -2.5Z" fill="none" stroke="#a16dc1" stroke-width="1"></path></g><g transform="translate(838 260)"><path d="M0 -11L9.5 -5.5L9.5 5.5L0 11L-9.5 5.5L-9.5 -5.5Z" fill="none" stroke="#a16dc1" stroke-width="1"></path></g><g transform="translate(84 1)"><path d="M0 -1L0.9 -0.5L0.9 0.5L0 1L-0.9 0.5L-0.9 -0.5Z" fill="none" stroke="#a16dc1" stroke-width="1"></path></g><g transform="translate(791 137)"><path d="M0 -9L7.8 -4.5L7.8 4.5L0 9L-7.8 4.5L-7.8 -4.5Z" fill="none" stroke="#a16dc1" stroke-width="1"></path></g><g transform="translate(366 341)"><path d="M0 -11L9.5 -5.5L9.5 5.5L0 11L-9.5 5.5L-9.5 -5.5Z" fill="none" stroke="#a16dc1" stroke-width="1"></path></g><g transform="translate(24 280)"><path d="M0 -4L3.5 -2L3.5 2L0 4L-3.5 2L-3.5 -2Z" fill="none" stroke="#a16dc1" stroke-width="1"></path></g><g transform="translate(250 574)"><path d="M0 -9L7.8 -4.5L7.8 4.5L0 9L-7.8 4.5L-7.8 -4.5Z" fill="none" stroke="#a16dc1" stroke-width="1"></path></g><g transform="translate(693 545)"><path d="M0 -2L1.7 -1L1.7 1L0 2L-1.7 1L-1.7 -1Z" fill="none" stroke="#a16dc1" stroke-width="1"></path></g><g transform="translate(360 592)"><path d="M0 -4L3.5 -2L3.5 2L0 4L-3.5 2L-3.5 -2Z" fill="none" stroke="#a16dc1" stroke-width="1"></path></g><g transform="translate(732 84)"><path d="M0 -10L8.7 -5L8.7 5L0 10L-8.7 5L-8.7 -5Z" fill="none" stroke="#a16dc1" stroke-width="1"></path></g><g transform="translate(833 204)"><path d="M0 -1L0.9 -0.5L0.9 0.5L0 1L-0.9 0.5L-0.9 -0.5Z" fill="none" stroke="#a16dc1" stroke-width="1"></path></g><g transform="translate(286 262)"><path d="M0 -10L8.7 -5L8.7 5L0 10L-8.7 5L-8.7 -5Z" fill="none" stroke="#a16dc1" stroke-width="1"></path></g><g transform="translate(220 4)"><path d="M0 -7L6.1 -3.5L6.1 3.5L0 7L-6.1 3.5L-6.1 -3.5Z" fill="none" stroke="#a16dc1" stroke-width="1"></path></g><g transform="translate(218 277)"><path d="M0 -8L6.9 -4L6.9 4L0 8L-6.9 4L-6.9 -4Z" fill="none" stroke="#a16dc1" stroke-width="1"></path></g><g transform="translate(406 394)"><path d="M0 -8L6.9 -4L6.9 4L0 8L-6.9 4L-6.9 -4Z" fill="none" stroke="#a16dc1" stroke-width="1"></path></g><g transform="translate(550 176)"><path d="M0 -9L7.8 -4.5L7.8 4.5L0 9L-7.8 4.5L-7.8 -4.5Z" fill="none" stroke="#a16dc1" stroke-width="1"></path></g><g transform="translate(71 311)"><path d="M0 -8L6.9 -4L6.9 4L0 8L-6.9 4L-6.9 -4Z" fill="none" stroke="#a16dc1" stroke-width="1"></path></g><g transform="translate(524 254)"><path d="M0 -10L8.7 -5L8.7 5L0 10L-8.7 5L-8.7 -5Z" fill="none" stroke="#a16dc1" stroke-width="1"></path></g><g transform="translate(261 462)"><path d="M0 -1L0.9 -0.5L0.9 0.5L0 1L-0.9 0.5L-0.9 -0.5Z" fill="none" stroke="#a16dc1" stroke-width="1"></path></g><g transform="translate(405 84)"><path d="M0 -10L8.7 -5L8.7 5L0 10L-8.7 5L-8.7 -5Z" fill="none" stroke="#a16dc1" stroke-width="1"></path></g><g transform="translate(120 486)"><path d="M0 -11L9.5 -5.5L9.5 5.5L0 11L-9.5 5.5L-9.5 -5.5Z" fill="none" stroke="#a16dc1" stroke-width="1"></path></g><g transform="translate(462 598)"><path d="M0 -4L3.5 -2L3.5 2L0 4L-3.5 2L-3.5 -2Z" fill="none" stroke="#a16dc1" stroke-width="1"></path></g><g transform="translate(767 161)"><path d="M0 -12L10.4 -6L10.4 6L0 12L-10.4 6L-10.4 -6Z" fill="none" stroke="#a16dc1" stroke-width="1"></path></g><g transform="translate(670 73)"><path d="M0 -10L8.7 -5L8.7 5L0 10L-8.7 5L-8.7 -5Z" fill="none" stroke="#a16dc1" stroke-width="1"></path></g><g transform="translate(820 164)"><path d="M0 -10L8.7 -5L8.7 5L0 10L-8.7 5L-8.7 -5Z" fill="none" stroke="#a16dc1" stroke-width="1"></path></g><g transform="translate(682 2)"><path d="M0 -11L9.5 -5.5L9.5 5.5L0 11L-9.5 5.5L-9.5 -5.5Z" fill="none" stroke="#a16dc1" stroke-width="1"></path></g><g transform="translate(247 189)"><path d="M0 -5L4.3 -2.5L4.3 2.5L0 5L-4.3 2.5L-4.3 -2.5Z" fill="none" stroke="#a16dc1" stroke-width="1"></path></g><g transform="translate(835 315)"><path d="M0 -1L0.9 -0.5L0.9 0.5L0 1L-0.9 0.5L-0.9 -0.5Z" fill="none" stroke="#a16dc1" stroke-width="1"></path></g><g transform="translate(545 552)"><path d="M0 -6L5.2 -3L5.2 3L0 6L-5.2 3L-5.2 -3Z" fill="none" stroke="#a16dc1" stroke-width="1"></path></g><g transform="translate(776 328)"><path d="M0 -8L6.9 -4L6.9 4L0 8L-6.9 4L-6.9 -4Z" fill="none" stroke="#a16dc1" stroke-width="1"></path></g><g transform="translate(409 30)"><path d="M0 -9L7.8 -4.5L7.8 4.5L0 9L-7.8 4.5L-7.8 -4.5Z" fill="none" stroke="#a16dc1" stroke-width="1"></path></g><g transform="translate(609 317)"><path d="M0 -7L6.1 -3.5L6.1 3.5L0 7L-6.1 3.5L-6.1 -3.5Z" fill="none" stroke="#a16dc1" stroke-width="1"></path></g><g transform="translate(216 428)"><path d="M0 -8L6.9 -4L6.9 4L0 8L-6.9 4L-6.9 -4Z" fill="none" stroke="#a16dc1" stroke-width="1"></path></g><g transform="translate(2 514)"><path d="M0 -6L5.2 -3L5.2 3L0 6L-5.2 3L-5.2 -3Z" fill="none" stroke="#a16dc1" stroke-width="1"></path></g><g transform="translate(707 154)"><path d="M0 -6L5.2 -3L5.2 3L0 6L-5.2 3L-5.2 -3Z" fill="none" stroke="#a16dc1" stroke-width="1"></path></g><g transform="translate(327 90)"><path d="M0 -7L6.1 -3.5L6.1 3.5L0 7L-6.1 3.5L-6.1 -3.5Z" fill="none" stroke="#a16dc1" stroke-width="1"></path></g><g transform="translate(176 500)"><path d="M0 -5L4.3 -2.5L4.3 2.5L0 5L-4.3 2.5L-4.3 -2.5Z" fill="none" stroke="#a16dc1" stroke-width="1"></path></g><g transform="translate(873 204)"><path d="M0 -10L8.7 -5L8.7 5L0 10L-8.7 5L-8.7 -5Z" fill="none" stroke="#a16dc1" stroke-width="1"></path></g><g transform="translate(346 139)"><path d="M0 -6L5.2 -3L5.2 3L0 6L-5.2 3L-5.2 -3Z" fill="none" stroke="#a16dc1" stroke-width="1"></path></g><g transform="translate(136 84)"><path d="M0 -7L6.1 -3.5L6.1 3.5L0 7L-6.1 3.5L-6.1 -3.5Z" fill="none" stroke="#a16dc1" stroke-width="1"></path></g><g transform="translate(676 100)"><path d="M0 -9L7.8 -4.5L7.8 4.5L0 9L-7.8 4.5L-7.8 -4.5Z" fill="none" stroke="#a16dc1" stroke-width="1"></path></g><g transform="translate(670 257)"><path d="M0 -7L6.1 -3.5L6.1 3.5L0 7L-6.1 3.5L-6.1 -3.5Z" fill="none" stroke="#a16dc1" stroke-width="1"></path></g><g transform="translate(668 132)"><path d="M0 -7L6.1 -3.5L6.1 3.5L0 7L-6.1 3.5L-6.1 -3.5Z" fill="none" stroke="#a16dc1" stroke-width="1"></path></g><g transform="translate(612 249)"><path d="M0 -2L1.7 -1L1.7 1L0 2L-1.7 1L-1.7 -1Z" fill="none" stroke="#a16dc1" stroke-width="1"></path></g><g transform="translate(533 376)"><path d="M0 -7L6.1 -3.5L6.1 3.5L0 7L-6.1 3.5L-6.1 -3.5Z" fill="none" stroke="#a16dc1" stroke-width="1"></path></g><g transform="translate(313 396)"><path d="M0 -10L8.7 -5L8.7 5L0 10L-8.7 5L-8.7 -5Z" fill="none" stroke="#a16dc1" stroke-width="1"></path></g><g transform="translate(213 95)"><path d="M0 -10L8.7 -5L8.7 5L0 10L-8.7 5L-8.7 -5Z" fill="none" stroke="#a16dc1" stroke-width="1"></path></g><g transform="translate(149 332)"><path d="M0 -6L5.2 -3L5.2 3L0 6L-5.2 3L-5.2 -3Z" fill="none" stroke="#a16dc1" stroke-width="1"></path></g><g transform="translate(432 138)"><path d="M0 -2L1.7 -1L1.7 1L0 2L-1.7 1L-1.7 -1Z" fill="none" stroke="#a16dc1" stroke-width="1"></path></g><g transform="translate(500 79)"><path d="M0 -4L3.5 -2L3.5 2L0 4L-3.5 2L-3.5 -2Z" fill="none" stroke="#a16dc1" stroke-width="1"></path></g><g transform="translate(97 322)"><path d="M0 -8L6.9 -4L6.9 4L0 8L-6.9 4L-6.9 -4Z" fill="none" stroke="#a16dc1" stroke-width="1"></path></g><g transform="translate(710 232)"><path d="M0 -6L5.2 -3L5.2 3L0 6L-5.2 3L-5.2 -3Z" fill="none" stroke="#a16dc1" stroke-width="1"></path></g><g transform="translate(551 407)"><path d="M0 -1L0.9 -0.5L0.9 0.5L0 1L-0.9 0.5L-0.9 -0.5Z" fill="none" stroke="#a16dc1" stroke-width="1"></path></g><g transform="translate(550 596)"><path d="M0 -6L5.2 -3L5.2 3L0 6L-5.2 3L-5.2 -3Z" fill="none" stroke="#a16dc1" stroke-width="1"></path></g><g transform="translate(506 464)"><path d="M0 -9L7.8 -4.5L7.8 4.5L0 9L-7.8 4.5L-7.8 -4.5Z" fill="none" stroke="#a16dc1" stroke-width="1"></path></g><g transform="translate(390 258)"><path d="M0 -4L3.5 -2L3.5 2L0 4L-3.5 2L-3.5 -2Z" fill="none" stroke="#a16dc1" stroke-width="1"></path></g><g transform="translate(661 182)"><path d="M0 -11L9.5 -5.5L9.5 5.5L0 11L-9.5 5.5L-9.5 -5.5Z" fill="none" stroke="#a16dc1" stroke-width="1"></path></g><g transform="translate(435 294)"><path d="M0 -7L6.1 -3.5L6.1 3.5L0 7L-6.1 3.5L-6.1 -3.5Z" fill="none" stroke="#a16dc1" stroke-width="1"></path></g><g transform="translate(599 173)"><path d="M0 -2L1.7 -1L1.7 1L0 2L-1.7 1L-1.7 -1Z" fill="none" stroke="#a16dc1" stroke-width="1"></path></g><g transform="translate(896 472)"><path d="M0 -6L5.2 -3L5.2 3L0 6L-5.2 3L-5.2 -3Z" fill="none" stroke="#a16dc1" stroke-width="1"></path></g><g transform="translate(662 474)"><path d="M0 -8L6.9 -4L6.9 4L0 8L-6.9 4L-6.9 -4Z" fill="none" stroke="#a16dc1" stroke-width="1"></path></g><g transform="translate(3 441)"><path d="M0 -6L5.2 -3L5.2 3L0 6L-5.2 3L-5.2 -3Z" fill="none" stroke="#a16dc1" stroke-width="1"></path></g><g transform="translate(352 35)"><path d="M0 -5L4.3 -2.5L4.3 2.5L0 5L-4.3 2.5L-4.3 -2.5Z" fill="none" stroke="#a16dc1" stroke-width="1"></path></g><g transform="translate(491 199)"><path d="M0 -6L5.2 -3L5.2 3L0 6L-5.2 3L-5.2 -3Z" fill="none" stroke="#a16dc1" stroke-width="1"></path></g><g transform="translate(603 478)"><path d="M0 -2L1.7 -1L1.7 1L0 2L-1.7 1L-1.7 -1Z" fill="none" stroke="#a16dc1" stroke-width="1"></path></g><g transform="translate(396 536)"><path d="M0 -7L6.1 -3.5L6.1 3.5L0 7L-6.1 3.5L-6.1 -3.5Z" fill="none" stroke="#a16dc1" stroke-width="1"></path></g><g transform="translate(30 165)"><path d="M0 -1L0.9 -0.5L0.9 0.5L0 1L-0.9 0.5L-0.9 -0.5Z" fill="none" stroke="#a16dc1" stroke-width="1"></path></g><g transform="translate(145 501)"><path d="M0 -3L2.6 -1.5L2.6 1.5L0 3L-2.6 1.5L-2.6 -1.5Z" fill="none" stroke="#a16dc1" stroke-width="1"></path></g><g transform="translate(898 54)"><path d="M0 -7L6.1 -3.5L6.1 3.5L0 7L-6.1 3.5L-6.1 -3.5Z" fill="none" stroke="#a16dc1" stroke-width="1"></path></g><g transform="translate(31 450)"><path d="M0 -9L7.8 -4.5L7.8 4.5L0 9L-7.8 4.5L-7.8 -4.5Z" fill="none" stroke="#a16dc1" stroke-width="1"></path></g><g transform="translate(786 2)"><path d="M0 -12L10.4 -6L10.4 6L0 12L-10.4 6L-10.4 -6Z" fill="none" stroke="#a16dc1" stroke-width="1"></path></g><g transform="translate(2 11)"><path d="M0 -12L10.4 -6L10.4 6L0 12L-10.4 6L-10.4 -6Z" fill="none" stroke="#a16dc1" stroke-width="1"></path></g><g transform="translate(805 441)"><path d="M0 -11L9.5 -5.5L9.5 5.5L0 11L-9.5 5.5L-9.5 -5.5Z" fill="none" stroke="#a16dc1" stroke-width="1"></path></g><g transform="translate(503 114)"><path d="M0 -8L6.9 -4L6.9 4L0 8L-6.9 4L-6.9 -4Z" fill="none" stroke="#a16dc1" stroke-width="1"></path></g><g transform="translate(595 525)"><path d="M0 -11L9.5 -5.5L9.5 5.5L0 11L-9.5 5.5L-9.5 -5.5Z" fill="none" stroke="#a16dc1" stroke-width="1"></path></g><g transform="translate(862 571)"><path d="M0 -10L8.7 -5L8.7 5L0 10L-8.7 5L-8.7 -5Z" fill="none" stroke="#a16dc1" stroke-width="1"></path></g><g transform="translate(466 286)"><path d="M0 -9L7.8 -4.5L7.8 4.5L0 9L-7.8 4.5L-7.8 -4.5Z" fill="none" stroke="#a16dc1" stroke-width="1"></path></g><g transform="translate(557 283)"><path d="M0 -4L3.5 -2L3.5 2L0 4L-3.5 2L-3.5 -2Z" fill="none" stroke="#a16dc1" stroke-width="1"></path></g><g transform="translate(263 362)"><path d="M0 -4L3.5 -2L3.5 2L0 4L-3.5 2L-3.5 -2Z" fill="none" stroke="#a16dc1" stroke-width="1"></path></g><g transform="translate(638 133)"><path d="M0 -3L2.6 -1.5L2.6 1.5L0 3L-2.6 1.5L-2.6 -1.5Z" fill="none" stroke="#a16dc1" stroke-width="1"></path></g><g transform="translate(131 196)"><path d="M0 -1L0.9 -0.5L0.9 0.5L0 1L-0.9 0.5L-0.9 -0.5Z" fill="none" stroke="#a16dc1" stroke-width="1"></path></g><g transform="translate(520 33)"><path d="M0 -2L1.7 -1L1.7 1L0 2L-1.7 1L-1.7 -1Z" fill="none" stroke="#a16dc1" stroke-width="1"></path></g><g transform="translate(165 446)"><path d="M0 -10L8.7 -5L8.7 5L0 10L-8.7 5L-8.7 -5Z" fill="none" stroke="#a16dc1" stroke-width="1"></path></g><g transform="translate(75 261)"><path d="M0 -2L1.7 -1L1.7 1L0 2L-1.7 1L-1.7 -1Z" fill="none" stroke="#a16dc1" stroke-width="1"></path></g><g transform="translate(898 293)"><path d="M0 -1L0.9 -0.5L0.9 0.5L0 1L-0.9 0.5L-0.9 -0.5Z" fill="none" stroke="#a16dc1" stroke-width="1"></path></g><g transform="translate(392 191)"><path d="M0 -11L9.5 -5.5L9.5 5.5L0 11L-9.5 5.5L-9.5 -5.5Z" fill="none" stroke="#a16dc1" stroke-width="1"></path></g><g transform="translate(312 437)"><path d="M0 -1L0.9 -0.5L0.9 0.5L0 1L-0.9 0.5L-0.9 -0.5Z" fill="none" stroke="#a16dc1" stroke-width="1"></path></g><g transform="translate(543 231)"><path d="M0 -1L0.9 -0.5L0.9 0.5L0 1L-0.9 0.5L-0.9 -0.5Z" fill="none" stroke="#a16dc1" stroke-width="1"></path></g><g transform="translate(50 524)"><path d="M0 -7L6.1 -3.5L6.1 3.5L0 7L-6.1 3.5L-6.1 -3.5Z" fill="none" stroke="#a16dc1" stroke-width="1"></path></g><g transform="translate(177 312)"><path d="M0 -8L6.9 -4L6.9 4L0 8L-6.9 4L-6.9 -4Z" fill="none" stroke="#a16dc1" stroke-width="1"></path></g><g transform="translate(39 476)"><path d="M0 -5L4.3 -2.5L4.3 2.5L0 5L-4.3 2.5L-4.3 -2.5Z" fill="none" stroke="#a16dc1" stroke-width="1"></path></g><g transform="translate(265 596)"><path d="M0 -2L1.7 -1L1.7 1L0 2L-1.7 1L-1.7 -1Z" fill="none" stroke="#a16dc1" stroke-width="1"></path></g><g transform="translate(569 70)"><path d="M0 -9L7.8 -4.5L7.8 4.5L0 9L-7.8 4.5L-7.8 -4.5Z" fill="none" stroke="#a16dc1" stroke-width="1"></path></g><g transform="translate(863 249)"><path d="M0 -3L2.6 -1.5L2.6 1.5L0 3L-2.6 1.5L-2.6 -1.5Z" fill="none" stroke="#a16dc1" stroke-width="1"></path></g><g transform="translate(599 141)"><path d="M0 -3L2.6 -1.5L2.6 1.5L0 3L-2.6 1.5L-2.6 -1.5Z" fill="none" stroke="#a16dc1" stroke-width="1"></path></g></g></svg>